<svg id="Layer_1" data-name="Layer 1" xmlns="http://www.w3.org/2000/svg" xmlns:xlink="http://www.w3.org/1999/xlink" viewBox="0 0 2400 652.89"><defs><style>.cls-1{fill:url(#linear-gradient);}.cls-2{fill:url(#linear-gradient-2);}.cls-3{fill:#191919;}.cls-4{fill:url(#linear-gradient-3);}.cls-5{fill:#fff;}</style><linearGradient id="linear-gradient" x1="2095.57" y1="297.64" x2="2360.06" y2="613.65" gradientUnits="userSpaceOnUse"><stop offset="0" stop-color="#ff5845"/><stop offset="0.29" stop-color="#ff5e45"/><stop offset="1" stop-color="#ff6845"/></linearGradient><linearGradient id="linear-gradient-2" x1="2239.58" y1="177.11" x2="2504.06" y2="493.12" xlink:href="#linear-gradient"/><linearGradient id="linear-gradient-3" x1="24.63" y1="7.11" x2="543.98" y2="673.32" xlink:href="#linear-gradient"/></defs><title>ProductX-SVG</title><path class="cls-1" d="M2397,527.74,2226.12,274.25a41.38,41.38,0,0,0-34.8-18.25l-22.43.26a17.69,17.69,0,0,0-14.46,27.58l82.17,121.94-82.17,122a17.68,17.68,0,0,0,14.46,27.57l22.42.29a41.42,41.42,0,0,0,34.82-18.27l49.56-73.54,49.56,73.54a41.4,41.4,0,0,0,34.81,18.26l22.42-.26A17.69,17.69,0,0,0,2397,527.74Z" transform="translate(0)"/><path class="cls-2" d="M2310.55,363a19.93,19.93,0,0,0,33,0l53.33-79.15a17.67,17.67,0,0,0-14.46-27.57l-22.41-.25a41.46,41.46,0,0,0-34.82,18.23l-24.72,36.7a33.24,33.24,0,0,0,0,37.14Z" transform="translate(0)"/><path class="cls-3" d="M821.52,455.45v78.12a22,22,0,0,1-22,22H774a22,22,0,0,1-22-22V278a22,22,0,0,1,22-22h83.67q31.66,0,54.39,7.51t37.42,20.66a80.8,80.8,0,0,1,21.7,31,105.54,105.54,0,0,1,7,38.66A113.67,113.67,0,0,1,971,395a82.55,82.55,0,0,1-22,32.07q-14.81,13.38-37.53,20.87t-53.77,7.51Zm0-52.44h36.19q27.15,0,39.07-12.95t11.93-36.19a54,54,0,0,0-3.09-18.71,38.18,38.18,0,0,0-9.35-14.5,42.12,42.12,0,0,0-15.84-9.35q-9.55-3.3-22.72-3.29H821.52Z" transform="translate(0)"/><path class="cls-3" d="M997.94,533.57V364.37a22,22,0,0,1,22-22h15.82a32.12,32.12,0,0,1,7.91.82,14,14,0,0,1,5.35,2.57,11,11,0,0,1,3.29,4.62,42.76,42.76,0,0,1,2,7l3.5,19.94q11.71-18.09,26.32-28.58A53.47,53.47,0,0,1,1116,338.24q14.6,0,23.44,7l-8.22,46.88q-.82,4.32-3.29,6.06a11.15,11.15,0,0,1-6.58,1.75,44.1,44.1,0,0,1-8.23-.92,63.45,63.45,0,0,0-11.93-.93q-25.08,0-39.47,26.73V533.57a22,22,0,0,1-22,22H1020A22,22,0,0,1,997.94,533.57Z" transform="translate(0)"/><path class="cls-3" d="M1246.33,339.07q24.27,0,44.21,7.6a97.07,97.07,0,0,1,34.24,21.8A98.21,98.21,0,0,1,1347,402.91q7.9,20.26,7.91,45.55,0,25.5-7.91,46a98.89,98.89,0,0,1-22.21,34.75,97.39,97.39,0,0,1-34.24,22q-19.95,7.71-44.21,7.71-24.46,0-44.52-7.71a99.28,99.28,0,0,1-34.54-22,97.4,97.4,0,0,1-22.41-34.75q-7.92-20.46-7.92-46,0-25.29,7.92-45.55a96.73,96.73,0,0,1,22.41-34.44,99,99,0,0,1,34.54-21.8Q1221.87,339.07,1246.33,339.07Zm0,172.52q22,0,32.39-15.53t10.38-47.19q0-31.67-10.38-47.09t-32.39-15.42q-22.62,0-33.1,15.42t-10.49,47.09q0,31.67,10.49,47.19T1246.33,511.59Z" transform="translate(0)"/><path class="cls-3" d="M1523.1,555.59a17.58,17.58,0,0,1-10-2.67,14.27,14.27,0,0,1-5.66-8l-4.93-16.25A124.41,124.41,0,0,1,1489.17,541a84.06,84.06,0,0,1-15.11,9.56,80.19,80.19,0,0,1-17.48,6.17,90,90,0,0,1-20.25,2.16,65.75,65.75,0,0,1-30.85-7.4A71.2,71.2,0,0,1,1381,530.09q-10.27-14-16.14-34.23T1359,449.69a143.87,143.87,0,0,1,6.58-44.31A108.72,108.72,0,0,1,1384.2,370a86.65,86.65,0,0,1,28.89-23.34,82.06,82.06,0,0,1,37.22-8.43q16.44,0,27.86,4.84a80.36,80.36,0,0,1,20.67,12.64V269.78a22,22,0,0,1,22-22h19.71a22,22,0,0,1,22,22V533.57a22,22,0,0,1-22,22Zm-64.57-45.65a54.62,54.62,0,0,0,12.65-1.34,44.54,44.54,0,0,0,10.38-3.8,45.24,45.24,0,0,0,9-6.17,78.3,78.3,0,0,0,8.33-8.63V399.52a42.23,42.23,0,0,0-15.73-11.21,48.94,48.94,0,0,0-17.59-3.18,37.57,37.57,0,0,0-16.24,3.49,33.05,33.05,0,0,0-12.85,11.21q-5.46,7.71-8.53,20.05t-3.09,29.81q0,16.86,2.47,28.38t6.89,18.61a26.67,26.67,0,0,0,10.59,10.18A30.42,30.42,0,0,0,1458.53,509.94Z" transform="translate(0)"/><path class="cls-3" d="M1633.09,342.36a22,22,0,0,1,22,22V477.66q0,15.84,7.2,24.47t21.18,8.63a45.43,45.43,0,0,0,19.64-4.32,72.8,72.8,0,0,0,17.78-12.13V364.37a22,22,0,0,1,22-22h19.71a22,22,0,0,1,22,22v169.2a22,22,0,0,1-22,22h-17.46q-11.93,0-15.63-10.69l-3.91-12.34a123.27,123.27,0,0,1-12.74,10.79,77.71,77.71,0,0,1-14.09,8.23,84.89,84.89,0,0,1-16.14,5.35,86,86,0,0,1-18.92,2q-17.48,0-31-6.07a63.64,63.64,0,0,1-22.72-17,73.94,73.94,0,0,1-14-25.7,106.1,106.1,0,0,1-4.73-32.49V364.37a22,22,0,0,1,22-22Z" transform="translate(0)"/><path class="cls-3" d="M1971.35,392.94a35.33,35.33,0,0,1-5.55,5.55q-2.67,2.06-7.61,2.06a16.34,16.34,0,0,1-8.53-2.26q-3.81-2.27-8.54-5a64.77,64.77,0,0,0-11.1-5,47.75,47.75,0,0,0-15.83-2.26q-11.73,0-20.26,4.32a37.43,37.43,0,0,0-14.08,12.33,56.46,56.46,0,0,0-8.23,19.64,117.51,117.51,0,0,0-2.67,26.22q0,30.65,11.82,47.09t32.6,16.45q11.1,0,17.58-2.78a53.66,53.66,0,0,0,11-6.17l8.33-6.27a15.37,15.37,0,0,1,9.56-2.88q7.61,0,11.51,5.55l5.64,7a22,22,0,0,1-4.15,31.69q-1.86,1.35-3.75,2.58a104.56,104.56,0,0,1-22.31,11.11,115.49,115.49,0,0,1-22.93,5.55,168.54,168.54,0,0,1-22.41,1.54,96.24,96.24,0,0,1-37.32-7.4A91.52,91.52,0,0,1,1832.86,530q-13.47-14.09-21.38-34.65t-7.92-46.88a131.75,131.75,0,0,1,6.89-43.08,97.71,97.71,0,0,1,20.36-34.75,94.56,94.56,0,0,1,33.31-23.13q19.85-8.43,46-8.43,25.08,0,44,8a101.66,101.66,0,0,1,16.1,8.61,22,22,0,0,1,5.43,31.6Z" transform="translate(0)"/><path class="cls-3" d="M2075.81,558.88q-15.22,0-26.84-4.42a51.83,51.83,0,0,1-31.56-32.18,76.09,76.09,0,0,1-4.11-25.7V386.36h-18.1a12,12,0,0,1-8.43-3.19q-3.49-3.18-3.5-9.35V348.94l33.93-6.58,12.55-52q2.46-9.87,14-9.87H2077v62.31h51.82v43.59H2077v105.9q0,7.39,3.6,12.23t10.38,4.83a20.37,20.37,0,0,0,5.86-.72A23.25,23.25,0,0,0,2101,507c1.16-.62,2.26-1.16,3.28-1.65a8.6,8.6,0,0,1,3.6-.72,7.44,7.44,0,0,1,4.63,1.34,16.58,16.58,0,0,1,3.6,4.22l6.56,10.25A22,22,0,0,1,2111.5,553c-1.26.43-2.53.84-3.82,1.23A110.14,110.14,0,0,1,2075.81,558.88Z" transform="translate(0)"/><path class="cls-4" d="M529.53,157.57H460.92v-7C460.92,67.57,393.35,0,310.3,0S159.68,67.57,159.68,150.61v7H91.07A91,91,0,0,0,1.13,262.79L50.52,576a91.06,91.06,0,0,0,89.94,76.87H480.14A91.06,91.06,0,0,0,570.08,576l49.39-313.23A91,91,0,0,0,529.53,157.57Zm-336.78-7a117.55,117.55,0,0,1,235.1,0v7H192.75Z" transform="translate(0)"/><path class="cls-5" d="M337.66,302.11H282.94a11.62,11.62,0,0,0-10.11,17.36l34.26,60.36a3.69,3.69,0,0,0,6.42,0l14.26-25.13,20-35.23h0A11.62,11.62,0,0,0,337.66,302.11Z" transform="translate(0)"/><path class="cls-5" d="M347.77,494.22l-34.26-60.36a3.69,3.69,0,0,0-6.42,0L292.83,459l-20,35.23h0a11.63,11.63,0,0,0,10.11,17.37h54.72A11.63,11.63,0,0,0,347.77,494.22Z" transform="translate(0)"/><path class="cls-5" d="M456.84,303.25a29.86,29.86,0,0,0-15.76-4.38h-28a39.55,39.55,0,0,0-34.39,20L375.79,324l-30.2,53.24-11.42,20.11a19.43,19.43,0,0,0,0,19.11l26,45.89L370,479.53a11.63,11.63,0,0,0,20.21,0l77.14-135.47A30.26,30.26,0,0,0,456.84,303.25Z" transform="translate(0)"/><path class="cls-5" d="M286.43,397.31,275,377.2,244.81,324l-2.88-5.07a39.55,39.55,0,0,0-34.39-20h-28a30.45,30.45,0,0,0-15.77,4.38,30.26,30.26,0,0,0-10.51,40.82l68.52,120.34,8.62,15.13a11.63,11.63,0,0,0,20.21,0l9.78-17.22,26-45.89A19.43,19.43,0,0,0,286.43,397.31Z" transform="translate(0)"/></svg>