<svg xmlns="http://www.w3.org/2000/svg" viewBox="0 0 151 91" xmlns:v="https://vecta.io/nano"><path fill="#f7f8f9" stroke="#d2d2d2" stroke-miterlimit="10" d="M.5.5h150v90H.5z"/><path d="M10.5 44.5l3.2-3.2c.1-.1.1-.2.1-.3s0-.2-.1-.3l-.3-.3c-.1-.1-.2-.1-.3-.1s-.2 0-.3.1l-3.9 3.9c-.1.1-.1.2-.1.3s0 .2.1.3l3.9 3.9c.1.1.2.1.3.1s.2 0 .3-.1l.3-.3c.2-.2.2-.5 0-.7l-3.2-3.3zm130 0l-3.2 3.2c-.1.1-.1.2-.1.3s0 .2.1.3l.3.3c.1.1.2.1.3.1s.2 0 .3-.1l3.9-3.9c.1-.1.1-.2.1-.3s0-.2-.1-.3l-3.9-3.9c-.1-.1-.2-.1-.3-.1s-.2 0-.3.1l-.3.3c-.2.2-.2.5 0 .7l3.2 3.3zM17.5 32h26v25h-26zm30 0h26v25h-26zm30 0h26v25h-26zm30 0h26v25h-26z" fill="#bdc5cb"/><circle fill="#d8dcde" cx="70" cy="62.5" r="2"/><circle fill="#a1aeb7" cx="75.5" cy="62.5" r="2"/><circle fill="#d8dcde" cx="81" cy="62.5" r="2"/></svg>