<svg width="31px" height="27px" viewBox="0 0 31 27" version="1.1" xmlns="http://www.w3.org/2000/svg"><g id="Page-1" stroke="none" stroke-width="1" fill="none" fill-rule="evenodd"><g id="magazine" fill="#ff5845" fill-rule="nonzero"><path d="M30.3675535,27 C30.7172964,27 31,26.8114219 31,26.578125 L31,24.8889375 L31,0.421875 C31,0.188578125 30.7172964,9.23705556e-14 30.3675535,9.23705556e-14 L3.79467929,9.23705556e-14 L0.632446548,9.23705556e-14 C0.282703607,9.23705556e-14 0,0.188578125 0,0.421875 L0,24.8889375 L0,26.578125 C0,26.8114219 0.282703607,27 0.632446548,27 L30.3675535,27 Z M29,25 L2,25 L2,2 L29,2 L29,25 Z" id="Shape"></path><path d="M12.5,10 C13.327,10 14,9.327 14,8.5 C14,7.673 13.327,7 12.5,7 C11.673,7 11,7.673 11,8.5 C11,9.327 11.6725,10 12.5,10 Z M12.5,8 C12.776,8 13,8.224 13,8.5 C13,8.776 12.776,9 12.5,9 C12.224,9 12,8.776 12,8.5 C12,8.224 12.224,8 12.5,8 Z" id="Shape"></path><path d="M6.01072128,19.3161289 C6.00882929,19.3338261 6,19.3496272 6,19.3679565 C6,19.390078 6.01072128,19.4090393 6.01324393,19.4311608 C6.01765858,19.4741398 6.02522654,19.5152226 6.03847047,19.5563054 C6.05108375,19.5961242 6.06558901,19.6315186 6.08513958,19.6669131 C6.10342882,19.7016755 6.12487138,19.7326456 6.15009792,19.7629837 C6.17847778,19.7977461 6.20874963,19.8268201 6.24280546,19.85463 C6.25983337,19.8679029 6.26992399,19.8874963 6.28821323,19.898873 C6.30839446,19.912146 6.33046769,19.9172023 6.35191025,19.927947 C6.37209148,19.9386918 6.39164205,19.9481724 6.41371527,19.956389 C6.48434959,19.9823028 6.55750656,20 6.63066352,20 L6.63129419,20 L24.3687058,20 L24.3693365,20 C24.4424934,20 24.5150197,19.9823028 24.5862847,19.956389 C24.6077273,19.9481724 24.6272779,19.9386918 24.6480898,19.927947 C24.6689016,19.9172023 24.6909749,19.912146 24.7117868,19.898873 C24.730076,19.8868642 24.7401666,19.8679029 24.7571945,19.85463 C24.791881,19.8268201 24.8221529,19.7977461 24.8499021,19.7629837 C24.8751286,19.7320135 24.8959405,19.7010434 24.9148604,19.6669131 C24.934411,19.6315186 24.9495469,19.5961242 24.9615295,19.5569375 C24.9747735,19.5152226 24.9823414,19.4741398 24.9867561,19.4311608 C24.9892787,19.4096714 25,19.39071 25,19.3679565 C25,19.3496272 24.9911707,19.3338261 24.9892787,19.3161289 C24.9854947,19.273782 24.9760348,19.2333312 24.9640522,19.1922484 C24.9514389,19.1505335 24.938195,19.1113468 24.9180137,19.0740562 C24.9098151,19.0582552 24.9085538,19.0399259 24.8990938,19.0247568 L17.9617951,8.28001698 C17.9605337,8.27812085 17.9580111,8.27685677 17.9567498,8.27496064 C17.9346765,8.24083029 17.89999,8.21618059 17.8709795,8.18710659 C17.8407077,8.15613645 17.8142198,8.12074202 17.7789026,8.09672436 C17.7770107,8.09546028 17.7757493,8.0929321 17.7738573,8.09166801 C17.7480001,8.07523488 17.7183589,8.07207467 17.6912404,8.05880175 C17.6458326,8.03794432 17.6010555,8.01392666 17.5518638,8.00444601 C17.512132,7.99622944 17.4717695,8.00191783 17.431407,8.00191783 C17.3910446,8.00191783 17.3513128,7.99622944 17.3109503,8.00444601 C17.2630199,8.01392666 17.2195041,8.03731227 17.1753577,8.05753766 C17.1469778,8.07081058 17.1160753,8.0739708 17.0889567,8.09166801 C17.0864341,8.0929321 17.0858034,8.09546028 17.0832808,8.09735641 C17.0498556,8.11884589 17.0252597,8.15360828 16.9962492,8.18268228 C16.9653467,8.21302037 16.9300295,8.2395662 16.9060643,8.27496064 C16.904803,8.27685677 16.9022803,8.27812085 16.901019,8.28001698 L13.0489262,14.2458758 L11.6475919,12.0754383 C11.6463305,12.0735422 11.6438079,12.0722781 11.6425466,12.070382 C11.621104,12.0368837 11.5870482,12.012866 11.5586683,11.9844241 C11.5277658,11.9521898 11.5006473,11.9161634 11.4653301,11.8921457 C11.4634381,11.8908816 11.4621768,11.8883534 11.4602848,11.8870894 C11.4350583,11.8706562 11.4060477,11.867496 11.3789292,11.8548551 C11.3335214,11.8333657 11.2881137,11.809348 11.2382912,11.7992353 C11.1985594,11.7916508 11.158197,11.7973392 11.1178345,11.7973392 C11.077472,11.7973392 11.0377402,11.7916508 10.9973778,11.7992353 C10.9488167,11.809348 10.9053009,11.8333657 10.8605238,11.8535911 C10.8321439,11.866864 10.8018721,11.8693921 10.7753842,11.8870894 C10.7734922,11.8883534 10.7722309,11.8908816 10.7703389,11.8921457 C10.7356524,11.9148993 10.7104259,11.9502937 10.6807847,11.9799998 C10.6505128,12.0097058 10.6151957,12.0356196 10.5924918,12.070382 C10.5912305,12.0722781 10.5887078,12.0735422 10.5874465,12.0754383 L6.1002755,19.0241248 C6.09018488,19.0392938 6.08892356,19.0576231 6.08135559,19.0734242 C6.06117436,19.1107148 6.04729976,19.1492694 6.03531716,19.1909843 C6.02333455,19.2333312 6.01450526,19.273782 6.01072128,19.3161289 L6.01072128,19.3161289 Z M13.5641783,15.7747891 C13.5692236,15.7678366 13.5736383,15.7615161 13.5774222,15.7539316 L17.4301457,9.78680874 L23.2082849,18.735913 L11.6526372,18.735913 L13.5641783,15.7747891 Z M10.1503967,18.735913 L7.79045375,18.735913 L11.1178345,13.5828621 L12.297806,15.4100999 L10.1503967,18.735913 Z" id="Shape"></path></g></g></svg>