<svg height="72" viewBox="0 0 48 72" width="48" xmlns="http://www.w3.org/2000/svg"><g fill="none" fill-rule="evenodd"><path d="m47.0207279 72c.5415375 0 .9792721-.502875.9792721-1.125v-4.5045-65.2455c0-.622125-.4377346-1.125-.9792721-1.125h-41.14509545-4.89636038c-.54153745 0-.97927207.502875-.97927207 1.125v65.2455 4.5045c0 .622125.43773462 1.125.97927207 1.125zm-2.0207279-3h-42v-66h42z" fill="#ff5845" fill-rule="nonzero"/><path d="m8.5 9.5h31v18h-31z" stroke="#ff5845" stroke-width="3"/><g fill="#ff5845"><path d="m7 34h10v2h-10z"/><path d="m37 39.5714293c-.0714239 0-.1428525-.0267858-.196424-.0803573l-2.7857176-2.6875032c-.0357144-.03125-1.0178584-.9285725-1.0178584-2.0000024 0-1.3080372.7991081-2.0892882 2.1339311-2.0892882.7812509 0 1.5133947.6160722 1.8660689.9642869.3526838-.3482147 1.0848275-.9642869 1.8660784-.9642869 1.334823 0 2.1339216.781251 2.1339216 2.0892882 0 1.0714299-.9821345 1.9687524-1.0223131 2.008931l-2.7812533 2.6785746c-.0535715.0535715-.1250002.0803573-.1964336.0803573z" fill-rule="nonzero"/><path d="m7 39h20v3h-20z"/><path d="m12.5714352 48.023434c0 .0602679-.0435268.1171876-.0870537.1607144l-1.2154032 1.1852693.2879468 1.6741091c.0033482.0234376.0033482.0435269.0033482.0669644 0 .0870537-.0401786.1674109-.137277.1674109-.046875 0-.0937501-.0167411-.1339287-.0401786l-1.50334999-.7901795-1.50335001.7901795c-.04352684.0234375-.08705368.0401786-.13392873.0401786-.09709833 0-.14062517-.0803572-.14062517-.1674109 0-.0234375.00334822-.0435268.00669644-.0669644l.28794677-1.6741091-1.21875145-1.1852693c-.04017862-.0435268-.08370546-.1004465-.08370546-.1607144 0-.1004466.10379477-.1406252.18750022-.1540181l1.68080558-.2444199.75334911-1.5234393c.03013397-.0636162.08705368-.137277.1640627-.137277s.13392873.0736608.16406269.137277l.7533491 1.5234393 1.6808056.2444199c.0803572.0133929.1875002.0535715.1875002.1540181zm7 0c0 .0602679-.0435268.1171876-.0870537.1607144l-1.2154032 1.1852693.2879468 1.6741091c.0033482.0234376.0033482.0435269.0033482.0669644 0 .0870537-.0401786.1674109-.137277.1674109-.046875 0-.0937501-.0167411-.1339287-.0401786l-1.50335-.7901795-1.50335.7901795c-.0435268.0234375-.0870537.0401786-.1339287.0401786-.0970984 0-.1406252-.0803572-.1406252-.1674109 0-.0234375.0033482-.0435268.0066964-.0669644l.2879468-1.6741091-1.2187514-1.1852693c-.0401787-.0435268-.0837055-.1004465-.0837055-.1607144 0-.1004466.1037948-.1406252.1875002-.1540181l1.6808056-.2444199.7533491-1.5234393c.030134-.0636162.0870537-.137277.1640627-.137277s.1339287.0736608.1640627.137277l.7533491 1.5234393 1.6808056.2444199c.0803572.0133929.1875002.0535715.1875002.1540181zm-10.42250942 13.0229527v-1.8413086c-.57422162-.1640633-.99535999-.4123518-1.26342773-.744873-.26806775-.3325212-.40209961-.7360816-.40209961-1.2106934 0-.4804711.15160981-.8840316.45483398-1.2106933.30322417-.3266618.70678459-.5148924 1.21069336-.5646973v-.4350586h.63720703v.4350586c.46582269.0556643.83642439.2145983 1.11181639.4768066.275392.2622084.4511715.6130349.5273438 1.0524903l-1.1118164.1450195c-.0673832-.3457049-.2431627-.5800775-.52734379-.703125v1.7182617c.70312849.1904307 1.18212759.4372544 1.43701169.7404785.2548841.3032242.3823243.6921363.3823243 1.1667481 0 .5302761-.1603988.9770489-.4812012 1.340332s-.7668429.5859371-1.33813479.6679688v.8217773h-.63720703v-.7998047c-.50683847-.0615237-.91845545-.2504867-1.23486328-.5668945s-.51855425-.7631807-.60644531-1.340332l1.14697265-.1230469c.04687524.2343762.13476498.4365226.26367188.6064453.12890689.1699227.27246015.2929684.43066406.3691406zm0-4.6142578c-.17285243.058594-.31054636.1582024-.41308594.2988281-.10253957.1406257-.15380859.2958976-.15380859.4658203 0 .1552743.04687453.2995599.140625.4328614.09375047.1333014.23583889.2409664.42626953.322998zm.63720703 4.6757813c.21972769-.0410159.39843679-.1428215.53613279-.30542.137696-.1625984.206543-.3537586.206543-.5734863 0-.19629-.0578608-.3654778-.173584-.5075684-.1157232-.1420905-.3054186-.2512203-.56909179-.3273925zm5.02294919.8920898v-1.2963867h-2.6367187v-1.0810547l2.7949219-4.0913086h1.0371093v4.0869141h.7998047v1.0854492h-.7998047v1.2963867zm0-2.3818359v-2.2016602l-1.480957 2.2016602zm2.6103516.8920898 1.1953125-.1318359c.029297.2431652.1054681.4233392.2285156.5405273s.2856435.1757813.487793.1757813c.2548841 0 .4716788-.1171864.6503906-.3515625.1787118-.2343762.2929685-.7206995.3427735-1.4589844-.3105485.3603534-.6987282.5405273-1.1645508.5405273-.5068385 0-.94409-.1955547-1.3117676-.5866699s-.5515137-.9001433-.5515137-1.5270996c0-.6533236.1940899-1.1799296.5822754-1.579834.3881855-.3999043.8825654-.5998535 1.4831543-.5998535.6533236 0 1.189451.252683 1.6083984.7580566.4189475.5053737.628418 1.3366642.628418 2.4938965 0 1.1777403-.2182595 2.0273412-.6547851 2.5488281-.4365257.521487-1.0048794.7822266-1.7050782.7822266-.5039087 0-.9111312-.1340319-1.2216797-.4020996-.3105484-.2680677-.5097651-.6686985-.5976562-1.2019043zm2.7949219-2.6982422c0-.3984395-.0915519-.7075184-.2746582-.9272461-.1831064-.2197276-.3947742-.3295898-.6350098-.3295898-.2285168 0-.4182121.090087-.5690918.2702637-.1508797.1801766-.2263184.4753397-.2263184.885498 0 .4160177.0820305.7214346.2460938.9162598s.3691394.2922363.6152344.2922363c.2373058 0 .437255-.0937491.5998535-.28125s.2438965-.4628888.2438965-.8261719zm6.3570797-9.7885777c0 .0602679-.0435268.1171876-.0870537.1607144l-1.2154032 1.1852693.2879468 1.6741091c.0033482.0234376.0033482.0435269.0033482.0669644 0 .0870537-.0401786.1674109-.137277.1674109-.046875 0-.0937501-.0167411-.1339287-.0401786l-1.50335-.7901795-1.50335.7901795c-.0435268.0234375-.0870537.0401786-.1339287.0401786-.0970984 0-.1406252-.0803572-.1406252-.1674109 0-.0234375.0033482-.0435268.0066964-.0669644l.2879468-1.6741091-1.2187514-1.1852693c-.0401787-.0435268-.0837055-.1004465-.0837055-.1607144 0-.1004466.1037948-.1406252.1875002-.1540181l1.6808056-.2444199.7533491-1.5234393c.030134-.0636162.0870537-.137277.1640627-.137277s.1339287.0736608.1640627.137277l.7533491 1.5234393 1.6808056.2444199c.0803572.0133929.1875002.0535715.1875002.1540181zm5.3995517 1.0379476.8604921-.8370546-1.1919657-.1741073-.2209824-.0334822-.1004466-.2008931-.5323667-1.0781263v3.2243342l.1975449.1037948 1.0647334.5625007-.2008931-1.1886175-.0401786-.2209824zm1.5133946-.8772332-1.2154032 1.1852693.2879468 1.6741091c.0234375.1473216-.030134.2343753-.1339288.2343753-.0368304 0-.0837054-.0133929-.1339287-.0401786l-1.50335-.7901795-1.50335.7901795c-.0502233.0267857-.0970983.0401786-.1339287.0401786-.1037948 0-.1573663-.0870537-.1339288-.2343753l.2879468-1.6741091-1.2187514-1.1852693c-.1439734-.1439734-.0970984-.2845985.1037947-.3147325l1.6808056-.2444199.7533491-1.5234393c.0435268-.0904019.1037948-.137277.1640627-.137277s.1171876.0468751.1640627.137277l.7533491 1.5234393 1.6808056.2444199c.2008931.030134.2477681.1707591.1004465.3147325zm5.3225427 1.0345995 1.0245548-.9944209-1.4129481-.2075895-.6328133-1.2790194-.6328132 1.2790194-1.4129482.2075895 1.0245548.9944209-.2444199 1.4095999 1.2656265-.6662955 1.2622783.6662955zm1.764511-1.1953139c0 .0602679-.0435268.1171876-.0870537.1607144l-1.2154032 1.1852693.2879468 1.6741091c.0033482.0234376.0033482.0435269.0033482.0669644 0 .0904019-.0401786.1674109-.137277.1674109-.046875 0-.0937501-.0167411-.1339287-.0401786l-1.50335-.7901795-1.50335.7901795c-.0435268.0234375-.0870537.0401786-.1339287.0401786-.0970984 0-.1406252-.0803572-.1406252-.1674109 0-.0234375.0033482-.0435268.0066964-.0669644l.2879468-1.6741091-1.2187514-1.1852693c-.0401787-.0435268-.0837055-.1004465-.0837055-.1607144 0-.1004466.1037948-.1406252.1875002-.1540181l1.6808056-.2444199.7533491-1.5234393c.030134-.0636162.0870537-.137277.1640627-.137277s.1339287.0736608.1640627.137277l.7533491 1.5234393 1.6808056.2444199c.0803572.0133929.1875002.0535715.1875002.1540181zm-25.562971-24.5363373c-.0014937.0132729-.0084642.0251237-.0084642.0388707 0 .0165911.0084642.0308121.0104557.0474032.0034853.0322342.00946.0630464.0199157.0938585.0099579.029864.0214094.0564099.0368441.0829557.0144388.0260718.0313672.0492994.0512829.072053.0224051.0260718.0463039.0478773.0731901.0687347.0134431.0099547.0214094.0246497.0358483.0331823.0159325.0099547.0333587.0137469.0502871.0218055.0159325.0080585.0313672.015169.0487934.0213314.055764.0194354.1135195.0327083.171275.0327083h.0004978 14.0032198.0004978c.0577555 0 .1150132-.0132729.171275-.0327083.0169283-.0061624.032363-.0132729.0487934-.0213314.0164305-.0080586.0338567-.0118508.0502871-.0218055.0144389-.0090066.0224052-.0232276.0358483-.0331823.0273841-.0208574.0512829-.0426629.0731901-.0687347.0199157-.0232276.0363462-.0464552.0512829-.072053.0154347-.0265458.0273841-.0530917.0368441-.0824817.0104557-.0312861.0164304-.0620983.0199157-.0943325.0019915-.0161171.0104557-.0303381.0104557-.0474032 0-.013747-.0069705-.0255978-.0084642-.0388707-.0029873-.0317602-.0104557-.0620983-.0199157-.0929104-.0099578-.0312862-.0204135-.0606762-.0363461-.0886441-.0064726-.0118508-.0074684-.0255978-.0149368-.0369746l-5.4768148-8.0585549c-.0009958-.0014221-.0029873-.0023701-.0039831-.0037922-.0174262-.0255978-.0448103-.0440851-.0677134-.0658906-.0238988-.0232276-.0448103-.0497734-.0726922-.0677866-.0014937-.0009481-.0024895-.0028442-.0039832-.0037923-.0204136-.0123248-.0438145-.014695-.0652239-.0246497-.0358482-.0156431-.0711985-.0336563-.1100341-.0407668-.0313673-.0061624-.0632324-.0018961-.0950975-.0018961s-.0632323-.0042663-.0950974.0018961c-.0378398.0071105-.0721944.0246497-.1070468.0398187-.0224052.0099547-.0468019.0123249-.0682113.0255978-.0019915.0009481-.0024894.0028442-.004481.0042663-.0263883.0161171-.0458061.0421889-.0687091.0639944-.0243967.0227536-.0522787.0426629-.0711986.0692088-.0009958.0014221-.0029874.0023701-.0039832.0037922l-3.0411259 4.4743941-1.1063165-1.6278281c-.0009958-.0014221-.0029874-.0023701-.0039832-.0037922-.0169283-.0251237-.0438145-.043137-.0662197-.0644685-.0243967-.0241756-.045806-.0511955-.073688-.0692087-.0014937-.0009481-.0024895-.0028442-.0039831-.0037923-.0199157-.0123248-.0428188-.014695-.0642281-.0241756-.0358483-.0161172-.0716965-.0341304-.11103-.0417149-.0313672-.0056884-.0632323-.0014221-.0950974-.0014221s-.0632324-.0042663-.0950975.0014221c-.0383377.0075845-.0726922.0255977-.1080426.0407668-.0224051.0099547-.046304.0118508-.0672154.0251237-.0014937.0009481-.0024895.0028442-.0039832.0037923-.027384.0170652-.0472997.043611-.0707007.0658905-.0238988.0222796-.0517808.0417149-.0697049.0677867-.0009958.0014221-.0029873.0023701-.0039831.0037922l-3.5425034 5.2115149c-.0079663.0113768-.0089621.0251237-.0149368.0369745-.0159326.027968-.0268862.056884-.0363461.0881701-.00946.0317602-.0164305.0620983-.0194178.0938585z" fill-rule="nonzero"/></g></g></svg>