<svg width="48px" height="55px" viewBox="0 0 48 55" version="1.1" xmlns="http://www.w3.org/2000/svg"><g id="Page-1" stroke="none" stroke-width="1" fill="none" fill-rule="evenodd"><g id="magazine"><path d="M47.0207279,55 C47.5622654,55 48,54.6158594 48,54.140625 L48,50.6996875 L48,0.859375 C48,0.384140625 47.5622654,0 47.0207279,0 L5.87563245,0 L0.979272074,0 C0.437734617,0 0,0.384140625 0,0.859375 L0,50.6996875 L0,54.140625 C0,54.6158594 0.437734617,55 0.979272074,55 L47.0207279,55 Z M45,52 L3,52 L3,3 L45,3 L45,52 Z" id="Shape" fill="#ff5845" fill-rule="nonzero"></path><rect id="Rectangle" fill="#E02A2A" x="0" y="21" width="48" height="20"></rect><rect id="Rectangle" fill="#FFFFFF" x="10" y="26" width="12" height="3"></rect><rect id="Rectangle" fill="#FFFFFF" x="10" y="33" width="23" height="3"></rect></g></g></svg>