<svg width="48px" height="49px" viewBox="0 0 48 49" version="1.1" xmlns="http://www.w3.org/2000/svg"><g id="Page-1" stroke="none" stroke-width="1" fill="none" fill-rule="evenodd"><g id="magazine"><path d="M47.0207279,49 C47.5622654,49 48,48.6577656 48,48.234375 L48,45.1688125 L48,0.765625 C48,0.342234375 47.5622654,0 47.0207279,0 L5.87563245,0 L0.979272074,0 C0.437734617,0 0,0.342234375 0,0.765625 L0,45.1688125 L0,48.234375 C0,48.6577656 0.437734617,49 0.979272074,49 L47.0207279,49 Z M45,46 L3,46 L3,3 L45,3 L45,46 Z" id="Shape" fill="#ff5845" fill-rule="nonzero"></path><rect id="Rectangle" stroke="#ff5845" stroke-width="2" x="20" y="10" width="19" height="5"></rect><rect id="Rectangle-Copy" stroke="#ff5845" stroke-width="2" x="9" y="10" width="5" height="5"></rect><rect id="Rectangle-Copy-3" stroke="#ff5845" stroke-width="2" x="20" y="22" width="19" height="5"></rect><rect id="Rectangle-Copy-2" stroke="#ff5845" stroke-width="2" x="9" y="22" width="5" height="5"></rect><rect id="Rectangle-Copy-5" stroke="#ff5845" stroke-width="2" x="20" y="34" width="19" height="5"></rect><rect id="Rectangle-Copy-4" stroke="#ff5845" stroke-width="2" x="9" y="34" width="5" height="5"></rect></g></g></svg>