<svg xmlns="http://www.w3.org/2000/svg" width="48" height="49" viewBox="0 0 48 49"><g fill="#ff5845" fill-rule="evenodd"><path fill-rule="nonzero" d="M47.0207279,49 C47.5622654,49 48,48.6577656 48,48.234375 L48,45.1688125 L48,0.765625 C48,0.342234375 47.5622654,0 47.0207279,0 L5.87563245,0 L0.979272074,0 C0.437734617,0 0,0.342234375 0,0.765625 L0,45.1688125 L0,48.234375 C0,48.6577656 0.437734617,49 0.979272074,49 L47.0207279,49 Z M45,46 L3,46 L3,3 L45,3 L45,46 Z"/><rect width="6" height="6" x="21" y="10" stroke="#ff5845" stroke-width="2"/><rect width="6" height="6" x="33" y="10" stroke="#ff5845" stroke-width="2"/><rect width="6" height="6" x="9" y="10" stroke="#ff5845" stroke-width="2"/><rect width="6" height="6" x="21" y="22" stroke="#ff5845" stroke-width="2"/><rect width="6" height="6" x="33" y="22" stroke="#ff5845" stroke-width="2"/><rect width="6" height="6" x="9" y="22" stroke="#ff5845" stroke-width="2"/><rect width="6" height="6" x="21" y="34" stroke="#ff5845" stroke-width="2"/><rect width="6" height="6" x="33" y="34" stroke="#ff5845" stroke-width="2"/><rect width="6" height="6" x="9" y="34" stroke="#ff5845" stroke-width="2"/></g></svg>