<svg xmlns="http://www.w3.org/2000/svg" width="48" height="72" viewBox="0 0 48 72"><g fill="none" fill-rule="evenodd"><path fill="#ff5845" fill-rule="nonzero" d="M47.0207279,72 C47.5622654,72 48,71.497125 48,70.875 L48,66.3705 L48,1.125 C48,0.502875 47.5622654,0 47.0207279,0 L5.87563245,0 L0.979272074,0 C0.437734617,0 0,0.502875 0,1.125 L0,66.3705 L0,70.875 C0,71.497125 0.437734617,72 0.979272074,72 L47.0207279,72 Z M45,69 L3,69 L3,3 L45,3 L45,69 Z"/><rect width="31" height="19" x="8.5" y="8.5" stroke="#ff5845" stroke-width="3"/><rect width="12" height="3" x="18" y="40" fill="#ff5845" fill-rule="nonzero"/><path fill="#ff5845" fill-rule="nonzero" d="M19.5 49.5273396C19.5 49.5976522 19.4492264 49.6640585 19.3984451 49.7148398L17.9804747 51.097654 18.3164126 53.0507813C18.3203188 53.0781251 18.3203188 53.1015626 18.3203188 53.1289064 18.3203188 53.230469 18.2734438 53.3242191 18.1601624 53.3242191 18.1054748 53.3242191 18.0507873 53.3046879 18.0039122 53.2773441L16.2500039 52.355468 14.4960955 53.2773441C14.4453142 53.3046879 14.3945329 53.3242191 14.3398453 53.3242191 14.226564 53.3242191 14.1757827 53.230469 14.1757827 53.1289064 14.1757827 53.1015626 14.1796889 53.0781251 14.1835952 53.0507813L14.5195331 51.097654 13.0976564 49.7148398C13.0507813 49.6640585 13 49.5976522 13 49.5273396 13 49.410152 13.1210939 49.3632769 13.2187503 49.3476519L15.1796901 49.0624953 16.0585974 47.2851494C16.0937537 47.2109306 16.16016 47.124993 16.2500039 47.124993 16.3398477 47.124993 16.4062541 47.2109306 16.4414104 47.2851494L17.3203177 49.0624953 19.2812575 49.3476519C19.3750076 49.3632769 19.5 49.410152 19.5 49.5273396zM28.5 49.5273396C28.5 49.5976522 28.4492264 49.6640585 28.3984451 49.7148398L26.9804747 51.097654 27.3164126 53.0507813C27.3203188 53.0781251 27.3203188 53.1015626 27.3203188 53.1289064 27.3203188 53.230469 27.2734438 53.3242191 27.1601624 53.3242191 27.1054748 53.3242191 27.0507873 53.3046879 27.0039122 53.2773441L25.2500039 52.355468 23.4960955 53.2773441C23.4453142 53.3046879 23.3945329 53.3242191 23.3398453 53.3242191 23.226564 53.3242191 23.1757827 53.230469 23.1757827 53.1289064 23.1757827 53.1015626 23.1796889 53.0781251 23.1835952 53.0507813L23.5195331 51.097654 22.0976564 49.7148398C22.0507813 49.6640585 22 49.5976522 22 49.5273396 22 49.410152 22.1210939 49.3632769 22.2187503 49.3476519L24.1796901 49.0624953 25.0585974 47.2851494C25.0937537 47.2109306 25.16016 47.124993 25.2500039 47.124993 25.3398477 47.124993 25.4062541 47.2109306 25.4414104 47.2851494L26.3203177 49.0624953 28.2812575 49.3476519C28.3750076 49.3632769 28.5 49.410152 28.5 49.5273396zM37.5 49.5273396C37.5 49.5976522 37.4492264 49.6640585 37.3984451 49.7148398L35.9804747 51.097654 36.3164126 53.0507813C36.3203188 53.0781251 36.3203188 53.1015626 36.3203188 53.1289064 36.3203188 53.230469 36.2734438 53.3242191 36.1601624 53.3242191 36.1054748 53.3242191 36.0507873 53.3046879 36.0039122 53.2773441L34.2500039 52.355468 32.4960955 53.2773441C32.4453142 53.3046879 32.3945329 53.3242191 32.3398453 53.3242191 32.226564 53.3242191 32.1757827 53.230469 32.1757827 53.1289064 32.1757827 53.1015626 32.1796889 53.0781251 32.1835952 53.0507813L32.5195331 51.097654 31.0976564 49.7148398C31.0507813 49.6640585 31 49.5976522 31 49.5273396 31 49.410152 31.1210939 49.3632769 31.2187503 49.3476519L33.1796901 49.0624953 34.0585974 47.2851494C34.0937537 47.2109306 34.16016 47.124993 34.2500039 47.124993 34.3398477 47.124993 34.4062541 47.2109306 34.4414104 47.2851494L35.3203177 49.0624953 37.2812575 49.3476519C37.3750076 49.3632769 37.5 49.410152 37.5 49.5273396z"/><rect width="23" height="3" x="13" y="34" fill="#ff5845" fill-rule="nonzero"/><rect width="23" height="2" x="13" y="58" fill="#ff5845" fill-rule="nonzero"/><rect width="20" height="2" x="14" y="63" fill="#ff5845" fill-rule="nonzero"/><path fill="#ff5845" fill-rule="nonzero" d="M17.0084642,21.4870967 C17.0069705,21.5003696 17,21.5122204 17,21.5259674 C17,21.5425585 17.0084642,21.5567795 17.0104557,21.5733706 C17.013941,21.6056048 17.0199157,21.636417 17.0303714,21.6672291 C17.0403293,21.6970931 17.0517808,21.723639 17.0672155,21.7501848 C17.0816543,21.7762566 17.0985827,21.7994842 17.1184984,21.8222378 C17.1409035,21.8483096 17.1648023,21.8701151 17.1916885,21.8909725 C17.2051316,21.9009272 17.2130979,21.9156222 17.2275368,21.9241548 C17.2434693,21.9341095 17.2608955,21.9379017 17.2778239,21.9459603 C17.2937564,21.9540188 17.3091911,21.9611293 17.3266173,21.9672917 C17.3823813,21.9867271 17.4401368,22 17.4978923,22 L17.4983901,22 L31.5016099,22 L31.5021077,22 C31.5598632,22 31.6171209,21.9867271 31.6733827,21.9672917 C31.690311,21.9611293 31.7057457,21.9540188 31.7221761,21.9459603 C31.7386066,21.9379017 31.7560328,21.9341095 31.7724632,21.9241548 C31.7869021,21.9151482 31.7948684,21.9009272 31.8083115,21.8909725 C31.8356956,21.8701151 31.8595944,21.8483096 31.8815016,21.8222378 C31.9014173,21.7990102 31.9178478,21.7757826 31.9327845,21.7501848 C31.9482192,21.723639 31.9601686,21.6970931 31.9696286,21.6677031 C31.9800843,21.636417 31.986059,21.6056048 31.9895443,21.5733706 C31.9915358,21.5572535 32,21.5430325 32,21.5259674 C32,21.5122204 31.9930295,21.5003696 31.9915358,21.4870967 C31.9885485,21.4553365 31.9810801,21.4249984 31.9716201,21.3941863 C31.9616623,21.3629001 31.9512066,21.3335101 31.935274,21.3055422 C31.9288014,21.2936914 31.9278056,21.2799444 31.9203372,21.2685676 L26.4435224,13.2100127 C26.4425266,13.2085906 26.4405351,13.2076426 26.4395393,13.2062205 C26.4221131,13.1806227 26.394729,13.1621354 26.3718259,13.1403299 C26.3479271,13.1171023 26.3270156,13.0905565 26.2991337,13.0725433 C26.29764,13.0715952 26.2966442,13.0696991 26.2951505,13.068751 C26.2747369,13.0564262 26.251336,13.054056 26.2299266,13.0441013 C26.1940784,13.0284582 26.1587281,13.010445 26.1198925,13.0033345 C26.0885252,12.9971721 26.0566601,13.0014384 26.024795,13.0014384 C25.9929299,13.0014384 25.9615627,12.9971721 25.9296976,13.0033345 C25.8918578,13.010445 25.8575032,13.0279842 25.8226508,13.0431532 C25.8002456,13.0531079 25.7758489,13.0554781 25.7544395,13.068751 C25.752448,13.0696991 25.7519501,13.0715952 25.7499585,13.0730173 C25.7235702,13.0891344 25.7041524,13.1152062 25.6812494,13.1370117 C25.6568527,13.1597653 25.6289707,13.1796746 25.6100508,13.2062205 C25.609055,13.2076426 25.6070634,13.2085906 25.6060676,13.2100127 L22.5649417,17.6844068 L21.4586252,16.0565787 C21.4576294,16.0551566 21.4556378,16.0542086 21.454642,16.0527865 C21.4377137,16.0276628 21.4108275,16.0096495 21.3884223,15.988318 C21.3640256,15.9641424 21.3426163,15.9371225 21.3147343,15.9191093 C21.3132406,15.9181612 21.3122448,15.9162651 21.3107512,15.915317 C21.2908355,15.9029922 21.2679324,15.900622 21.2465231,15.8911414 C21.2106748,15.8750242 21.1748266,15.857011 21.1354931,15.8494265 C21.1041259,15.8437381 21.0722608,15.8480044 21.0403957,15.8480044 C21.0085306,15.8480044 20.9771633,15.8437381 20.9452982,15.8494265 C20.9069605,15.857011 20.872606,15.8750242 20.8372556,15.8901933 C20.8148505,15.900148 20.7909516,15.9020441 20.7700402,15.915317 C20.7685465,15.9162651 20.7675507,15.9181612 20.766057,15.9191093 C20.738673,15.9361745 20.7187573,15.9627203 20.6953563,15.9849998 C20.6714575,16.0072794 20.6435755,16.0267147 20.6256514,16.0527865 C20.6246556,16.0542086 20.6226641,16.0551566 20.6216683,16.0565787 L17.0791649,21.2680936 C17.0711986,21.2794704 17.0702028,21.2932173 17.0642281,21.3050681 C17.0482955,21.3330361 17.0373419,21.3619521 17.027882,21.3932382 C17.018422,21.4249984 17.0114515,21.4553365 17.0084642,21.4870967 L17.0084642,21.4870967 Z"/></g></svg>