<svg xmlns="http://www.w3.org/2000/svg" width="50" height="60" viewBox="0 0 50 60"><g fill="none" fill-rule="evenodd"><path fill="#ff5845" fill-rule="nonzero" d="M48.9799249,60 C49.5440264,60 50,59.5809375 50,59.0625 L50,55.30875 L50,0.9375 C50,0.4190625 49.5440264,0 48.9799249,0 L6.12045047,0 L1.02007508,0 C0.45597356,0 0,0.4190625 0,0.9375 L0,55.30875 L0,59.0625 C0,59.5809375 0.45597356,60 1.02007508,60 L48.9799249,60 Z M47,57 L3,57 L3,3 L47,3 L47,57 Z"/><path fill="#ff5845" fill-rule="nonzero" d="M30.2420823,40.05769 C30.1650106,40.0525039 30.1024837,40.0327741 30.0545,39.9985 C30.0054998,39.9634998 29.9670001,39.9238336 29.939,39.8795 C29.9109999,39.8351664 29.8911667,39.7873336 29.8795,39.736 C29.8678333,39.6846664 29.8643333,39.6403335 29.869,39.603 C29.869,39.5516664 29.8841665,39.5096668 29.9145,39.477 C29.9448335,39.4443332 29.9879997,39.428 30.044,39.428 L30.646,39.428 C30.7020003,39.428 30.7439999,39.4443332 30.772,39.477 C30.8046668,39.5096668 30.821,39.5516664 30.821,39.603 L30.821,40.058 C30.821,40.0860001 30.8349999,40.1046666 30.863,40.114 C31.1056679,40.1606669 31.3424988,40.248166 31.5735,40.3765 C31.8045012,40.504834 31.9899993,40.6763323 32.13,40.891 C32.2466673,41.0730009 32.3096666,41.2479992 32.319,41.416 C32.319,41.4580002 32.3050001,41.4953332 32.277,41.528 C32.2489999,41.5606668 32.2140002,41.577 32.172,41.577 L31.199,41.577 C31.0916661,41.577 31.0146669,41.5373337 30.968,41.458 C30.9493332,41.4019997 30.9213335,41.3541669 30.884,41.3145 C30.8466665,41.2748331 30.8000003,41.2363335 30.744,41.199 C30.6179994,41.1336663 30.4756675,41.101 30.317,41.101 C30.2469996,41.101 30.1758337,41.1068333 30.1035,41.1185 C30.0311663,41.1301667 29.964667,41.1511665 29.904,41.1815 C29.843333,41.2118335 29.7931669,41.2538331 29.7535,41.3075 C29.7138331,41.3611669 29.6963333,41.4299996 29.701,41.514 C29.701,41.649334 29.7709993,41.754333 29.911,41.829 C30.046334,41.903667 30.3029981,41.9806663 30.681,42.06 C30.9050011,42.1020002 31.1254989,42.1521664 31.3425,42.2105 C31.5595011,42.2688336 31.7519992,42.3516661 31.92,42.459 C32.0880008,42.5663339 32.2233328,42.7051658 32.326,42.8755 C32.4286672,43.0458342 32.48,43.2639987 32.48,43.53 C32.48,43.7633345 32.4345005,43.9663325 32.3435,44.139 C32.2524995,44.3116675 32.1323341,44.4598327 31.983,44.5835 C31.8336659,44.7071673 31.6621676,44.806333 31.4685,44.881 C31.2748324,44.955667 31.0753344,45.0069999 30.87,45.035 C30.8419999,45.0396667 30.8035002,45.0431667 30.7545,45.0455 C30.7054998,45.0478333 30.6576669,45.049 30.611,45.049 L30.436,45.049 C30.4920003,45.049 30.5631662,45.0734998 30.6495,45.1225 C30.7358338,45.1715002 30.7883332,45.2496661 30.807,45.357 C30.8116667,45.3943335 30.8163333,45.4339998 30.821,45.476 L30.821,45.525 C30.821,45.5763336 30.8046668,45.6183332 30.772,45.651 C30.7439999,45.6836668 30.7020003,45.7 30.646,45.7 L30.044,45.7 C29.9879997,45.7 29.9448335,45.6836668 29.9145,45.651 C29.8841665,45.6183332 29.869,45.5763336 29.869,45.525 L29.869,45.084 C29.869,45.0513332 29.8526668,45.035 29.82,45.035 C29.6286657,45.0069999 29.4396676,44.9603337 29.253,44.895 C29.0663324,44.8296663 28.8983341,44.7410006 28.749,44.629 C28.5996659,44.5169994 28.4771671,44.3816675 28.3815,44.223 C28.2858329,44.0643325 28.2356667,43.8776677 28.231,43.663 C28.231,43.6209998 28.2449999,43.5860001 28.273,43.558 C28.3056668,43.5299999 28.3429998,43.516 28.385,43.516 L29.309,43.516 C29.3370001,43.516 29.3626666,43.5195 29.386,43.5265 C29.4093334,43.5335 29.4303332,43.5393333 29.449,43.544 C29.4863335,43.5673334 29.5213332,43.5999998 29.554,43.642 C29.7033341,43.898668 29.9693314,44.027 30.352,44.027 C30.4220004,44.027 30.5024995,44.0223334 30.5935,44.013 C30.6845005,44.0036666 30.7708329,43.9838335 30.8525,43.9535 C30.9341671,43.9231665 31.0018331,43.8800003 31.0555,43.824 C31.1091669,43.7679997 31.1383333,43.6910005 31.143,43.593 C31.143,43.4716661 31.0940005,43.3818336 30.996,43.3235 C30.8979995,43.2651664 30.8000005,43.2196668 30.702,43.187 C30.6226663,43.1636666 30.5281672,43.1380001 30.4185,43.11 C30.3088328,43.0819999 30.1816674,43.0540001 30.037,43.026 C29.8223323,42.9839998 29.6146677,42.9303337 29.414,42.865 C29.2133323,42.7996663 29.0336675,42.7098339 28.875,42.5955 C28.7163325,42.4811661 28.5903338,42.3400008 28.497,42.172 C28.4036662,42.0039992 28.357,41.7940013 28.357,41.542 C28.357,41.3319989 28.3966663,41.1441675 28.476,40.9785 C28.5553337,40.8128325 28.6614993,40.6693339 28.7945,40.548 C28.9275007,40.4266661 29.0826658,40.328667 29.26,40.254 C29.4373342,40.179333 29.623999,40.1280001 29.82,40.1 C29.8340001,40.0953333 29.8829996,40.0883334 29.967,40.079 C30.0509667,40.0696704 30.1442579,40.0626723 30.2468764,40.0580056 L30.2420823,40.05769 Z M36.82,43.908 C36.8760003,43.908 36.9179999,43.9243332 36.946,43.957 C36.9786668,43.9850001 36.995,44.0246664 36.995,44.076 L36.995,44.825 C36.995,44.8716669 36.9786668,44.9113332 36.946,44.944 C36.9133332,44.9813335 36.8713336,45 36.82,45 L33.194,45 C33.1473331,45 33.1065002,44.9825002 33.0715,44.9475 C33.0364998,44.9124998 33.019,44.8716669 33.019,44.825 L33.019,44.3 C33.019,44.1599993 33.0773327,44.0456671 33.194,43.957 C33.4600013,43.7236655 33.7049989,43.5113343 33.929,43.32 C34.064334,43.2033328 34.1739996,43.1088337 34.258,43.0365 C34.3420004,42.9641663 34.4224996,42.8953337 34.4995,42.83 C34.5765004,42.7646663 34.645333,42.7051669 34.706,42.6515 C34.766667,42.5978331 34.8109999,42.5593334 34.839,42.536 C34.899667,42.4846664 34.9708329,42.4240004 35.0525,42.354 C35.1341671,42.2839996 35.2099997,42.2081671 35.28,42.1265 C35.3500004,42.0448329 35.4094998,41.9596671 35.4585,41.871 C35.5075002,41.7823329 35.532,41.6936671 35.532,41.605 C35.532,41.2596649 35.3593351,41.087 35.014,41.087 C34.8319991,41.087 34.6931671,41.1418328 34.5975,41.2515 C34.5018329,41.3611672 34.4376668,41.4976658 34.405,41.661 C34.3769999,41.7683339 34.2976673,41.822 34.167,41.822 L33.25,41.822 C33.2079998,41.822 33.1718335,41.8080001 33.1415,41.78 C33.1111665,41.7519999 33.096,41.7170002 33.096,41.675 C33.1006667,41.4089987 33.1578328,41.174501 33.2675,40.9715 C33.3771672,40.768499 33.5206658,40.5970007 33.698,40.457 C33.8753342,40.3169993 34.0783322,40.2108337 34.307,40.1385 C34.5356678,40.0661663 34.7713321,40.03 35.014,40.03 C35.2566679,40.03 35.4911655,40.0591664 35.7175,40.1175 C35.9438345,40.1758336 36.1433325,40.2656661 36.316,40.387 C36.4886675,40.5083339 36.6274995,40.6646657 36.7325,40.856 C36.8375005,41.0473343 36.89,41.2759987 36.89,41.542 C36.89,41.8826684 36.7873344,42.1859987 36.582,42.452 C36.5539999,42.4846668 36.5108336,42.531333 36.4525,42.592 C36.3941664,42.652667 36.327667,42.720333 36.253,42.795 C36.178333,42.869667 36.0966671,42.9489996 36.008,43.033 C35.9193329,43.1170004 35.8306671,43.1986663 35.742,43.278 C35.531999,43.474001 35.3033346,43.6839989 35.056,43.908 L36.82,43.908 Z M39.69,45.07 C39.0459968,45.0653333 38.5560017,44.8950017 38.22,44.559 C37.8839983,44.2229983 37.6996668,43.7796694 37.667,43.229 C37.6576666,42.9769987 37.653,42.7506677 37.653,42.55 C37.653,42.3446656 37.6576666,42.1113346 37.667,41.85 C37.6856668,41.4999982 37.7731659,41.1885014 37.9295,40.9155 C38.0858341,40.6424986 38.3121652,40.4266675 38.6085,40.268 C38.9048348,40.1093325 39.2653312,40.03 39.69,40.03 C40.1146688,40.03 40.4763318,40.1093325 40.775,40.268 C41.0736682,40.4266675 41.3011659,40.6424986 41.4575,40.9155 C41.6138341,41.1885014 41.7013332,41.4999982 41.72,41.85 C41.7293334,41.9806673 41.734,42.2139983 41.734,42.55 C41.734,42.8766683 41.7293334,43.1029994 41.72,43.229 C41.6873332,43.7796694 41.5030017,44.2229983 41.167,44.559 C40.8309983,44.8950017 40.3386699,45.0653333 39.69,45.07 Z M39.69,44.013 C39.9093344,44.013 40.0726661,43.941834 40.18,43.7995 C40.2873339,43.657166 40.3456666,43.4553346 40.355,43.194 C40.3643334,43.058666 40.369,42.8393349 40.369,42.536 C40.369,42.2326652 40.3643334,42.0180006 40.355,41.892 C40.3456666,41.6399987 40.2873339,41.4405007 40.18,41.2935 C40.0726661,41.1464993 39.9093344,41.073 39.69,41.073 C39.2699979,41.073 39.0483335,41.3459973 39.025,41.892 C39.0203333,42.0180006 39.018,42.2326652 39.018,42.536 C39.018,42.8393349 39.0203333,43.058666 39.025,43.194 C39.0483335,43.7400027 39.2699979,44.013 39.69,44.013 Z"/><rect width="33" height="26" x="8.5" y="8.5" stroke="#ff5845" stroke-width="3"/><rect width="8" height="3" x="7" y="42" fill="#ff5845"/><rect width="17" height="3" x="7" y="49" fill="#ff5845"/><path fill="#ff5845" fill-rule="nonzero" d="M34.5 49.5273396C34.5 49.5976522 34.4492264 49.6640585 34.3984451 49.7148398L32.9804747 51.097654 33.3164126 53.0507813C33.3203188 53.0781251 33.3203188 53.1015626 33.3203188 53.1289064 33.3203188 53.230469 33.2734438 53.3242191 33.1601624 53.3242191 33.1054748 53.3242191 33.0507873 53.3046879 33.0039122 53.2773441L31.2500039 52.355468 29.4960955 53.2773441C29.4453142 53.3046879 29.3945329 53.3242191 29.3398453 53.3242191 29.226564 53.3242191 29.1757827 53.230469 29.1757827 53.1289064 29.1757827 53.1015626 29.1796889 53.0781251 29.1835952 53.0507813L29.5195331 51.097654 28.0976564 49.7148398C28.0507813 49.6640585 28 49.5976522 28 49.5273396 28 49.410152 28.1210939 49.3632769 28.2187503 49.3476519L30.1796901 49.0624953 31.0585974 47.2851494C31.0937537 47.2109306 31.16016 47.124993 31.2500039 47.124993 31.3398477 47.124993 31.4062541 47.2109306 31.4414104 47.2851494L32.3203177 49.0624953 34.2812575 49.3476519C34.3750076 49.3632769 34.5 49.410152 34.5 49.5273396zM42.5 49.5273396C42.5 49.5976522 42.4492264 49.6640585 42.3984451 49.7148398L40.9804747 51.097654 41.3164126 53.0507813C41.3203188 53.0781251 41.3203188 53.1015626 41.3203188 53.1289064 41.3203188 53.230469 41.2734438 53.3242191 41.1601624 53.3242191 41.1054748 53.3242191 41.0507873 53.3046879 41.0039122 53.2773441L39.2500039 52.355468 37.4960955 53.2773441C37.4453142 53.3046879 37.3945329 53.3242191 37.3398453 53.3242191 37.226564 53.3242191 37.1757827 53.230469 37.1757827 53.1289064 37.1757827 53.1015626 37.1796889 53.0781251 37.1835952 53.0507813L37.5195331 51.097654 36.0976564 49.7148398C36.0507813 49.6640585 36 49.5976522 36 49.5273396 36 49.410152 36.1210939 49.3632769 36.2187503 49.3476519L38.1796901 49.0624953 39.0585974 47.2851494C39.0937537 47.2109306 39.16016 47.124993 39.2500039 47.124993 39.3398477 47.124993 39.4062541 47.2109306 39.4414104 47.2851494L40.3203177 49.0624953 42.2812575 49.3476519C42.3750076 49.3632769 42.5 49.410152 42.5 49.5273396zM17.0095927 27.4301074C17.0078999 27.4448551 17 27.4580227 17 27.4732971 17 27.4917317 17.0095927 27.5075328 17.0118498 27.5259674 17.0157998 27.5617832 17.0225711 27.5960188 17.034421 27.6302545 17.0457065 27.6634368 17.0586849 27.6929322 17.0761775 27.7224276 17.0925416 27.7513962 17.111727 27.7772047 17.1342981 27.8024864 17.1596906 27.8314551 17.186776 27.8556834 17.217247 27.8788583 17.2324825 27.8899191 17.2415109 27.9062469 17.257875 27.9157275 17.2759319 27.9267883 17.2956816 27.9310019 17.3148671 27.9399559 17.332924 27.9489098 17.3504166 27.9568104 17.3701663 27.9636575 17.4333654 27.9852523 17.4988217 28 17.5642779 28L17.5648422 28 33.4351578 28 33.4357221 28C33.5011783 28 33.5660703 27.9852523 33.6298337 27.9636575 33.6490192 27.9568104 33.6665118 27.9489098 33.6851329 27.9399559 33.7037541 27.9310019 33.7235038 27.9267883 33.742125 27.9157275 33.7584891 27.9057202 33.7675175 27.8899191 33.782753 27.8788583 33.8137883 27.8556834 33.8408736 27.8314551 33.8657019 27.8024864 33.888273 27.776678 33.9068941 27.7508695 33.9238225 27.7224276 33.9413151 27.6929322 33.9548578 27.6634368 33.965579 27.6307812 33.9774289 27.5960188 33.9842002 27.5617832 33.9881502 27.5259674 33.9904073 27.5080595 34 27.4922584 34 27.4732971 34 27.4580227 33.9921001 27.4448551 33.9904073 27.4301074 33.9870216 27.3948183 33.9785574 27.3611093 33.9678362 27.3268736 33.9565506 27.2921113 33.9447008 27.2594557 33.9266439 27.2283802 33.9193083 27.2152126 33.9181797 27.1999382 33.9097155 27.1872974L27.7026587 18.2333475C27.7015302 18.2317674 27.6992731 18.230714 27.6981445 18.2291339 27.6783948 18.2006919 27.6473595 18.1801505 27.6214027 18.1559222 27.5943174 18.1301137 27.5706177 18.1006183 27.5390182 18.0806036 27.5373253 18.0795502 27.5361968 18.0774434 27.5345039 18.07639 27.5113685 18.0626957 27.4848475 18.0600622 27.4605835 18.0490015 27.4199555 18.0316203 27.3798918 18.0116056 27.3358781 18.003705 27.3003286 17.9968579 27.2642148 18.0015982 27.228101 18.0015982 27.1919873 18.0015982 27.1564377 17.9968579 27.120324 18.003705 27.0774388 18.0116056 27.0385037 18.0310936 26.9990042 18.0479481 26.9736117 18.0590088 26.9459621 18.0616423 26.9216981 18.07639 26.919441 18.0774434 26.9188768 18.0795502 26.9166196 18.0811303 26.8867129 18.0990382 26.8647061 18.1280069 26.8387493 18.1522352 26.8110997 18.177517 26.7795001 18.1996385 26.7580576 18.2291339 26.756929 18.230714 26.7546719 18.2317674 26.7535433 18.2333475L23.306934 23.2048965 22.0531085 21.3961986C22.05198 21.3946185 22.0497228 21.3935651 22.0485943 21.391985 22.0294088 21.3640697 21.9989378 21.344055 21.9735453 21.3203534 21.9458957 21.2934915 21.9216318 21.2634695 21.8900322 21.2434548 21.8883394 21.2424014 21.8872108 21.2402945 21.885518 21.2392411 21.8629469 21.2255469 21.8369901 21.2229133 21.8127261 21.2123793 21.7720981 21.1944714 21.7314701 21.1744567 21.6868922 21.1660294 21.6513426 21.159709 21.6152289 21.1644493 21.5791151 21.1644493 21.5430013 21.1644493 21.5074518 21.159709 21.471338 21.1660294 21.4278886 21.1744567 21.3889534 21.1944714 21.3488897 21.2113259 21.3234972 21.2223866 21.2964119 21.2244935 21.2727122 21.2392411 21.2710194 21.2402945 21.2698908 21.2424014 21.268198 21.2434548 21.2371627 21.2624161 21.2145916 21.2919114 21.1880705 21.3166665 21.1609852 21.3414215 21.1293856 21.3630163 21.1090716 21.391985 21.107943 21.3935651 21.1056859 21.3946185 21.1045574 21.3961986L17.0897202 27.1867707C17.0806917 27.1994115 17.0795632 27.2146859 17.0727918 27.2278535 17.054735 27.258929 17.0423208 27.2910579 17.0315996 27.3258202 17.0208783 27.3611093 17.0129784 27.3948183 17.0095927 27.4301074L17.0095927 27.4301074z"/></g></svg>