<svg xmlns="http://www.w3.org/2000/svg" width="48" height="65" viewBox="0 0 48 65"><g fill="none" fill-rule="evenodd"><path fill="#ff5845" fill-rule="nonzero" d="M47.0207279,65 C47.5622654,65 48,64.5460156 48,63.984375 L48,59.9178125 L48,1.015625 C48,0.453984375 47.5622654,0 47.0207279,0 L5.87563245,0 L0.979272074,0 C0.437734617,0 0,0.453984375 0,1.015625 L0,59.9178125 L0,63.984375 C0,64.5460156 0.437734617,65 0.979272074,65 L47.0207279,65 Z M45,62 L3,62 L3,3 L45,3 L45,62 Z"/><path fill="#ff5845" fill-rule="nonzero" d="M10.2029747,49.9395571 C10.0928722,49.9321484 10.0035482,49.903963 9.935,49.855 C9.86499965,49.8049997 9.8100002,49.7483336 9.77,49.685 C9.7299998,49.6216663 9.70166675,49.5533337 9.685,49.48 C9.66833325,49.4066663 9.6633333,49.3433336 9.67,49.29 C9.67,49.2166663 9.69166645,49.1566669 9.735,49.11 C9.77833355,49.0633331 9.8399996,49.04 9.92,49.04 L10.78,49.04 C10.8600004,49.04 10.9199998,49.0633331 10.96,49.11 C11.0066669,49.1566669 11.03,49.2166663 11.03,49.29 L11.03,49.94 C11.03,49.9800002 11.0499998,50.0066666 11.09,50.02 C11.4366684,50.086667 11.7749984,50.2116657 12.105,50.395 C12.4350017,50.5783342 12.699999,50.8233318 12.9,51.13 C13.0666675,51.3900013 13.1566666,51.6399988 13.17,51.88 C13.17,51.9400003 13.1500002,51.9933331 13.11,52.04 C13.0699998,52.0866669 13.0200003,52.11 12.96,52.11 L11.57,52.11 C11.4166659,52.11 11.306667,52.0533339 11.24,51.94 C11.2133332,51.8599996 11.1733336,51.7916669 11.12,51.735 C11.0666664,51.678333 11.0000004,51.6233336 10.92,51.57 C10.7399991,51.4766662 10.5366678,51.43 10.31,51.43 C10.2099995,51.43 10.1083339,51.4383332 10.005,51.455 C9.90166615,51.4716667 9.8066671,51.5016664 9.72,51.545 C9.6333329,51.5883335 9.56166695,51.6483329 9.505,51.725 C9.44833305,51.801667 9.4233333,51.8999994 9.43,52.02 C9.43,52.2133343 9.529999,52.3633328 9.73,52.47 C9.9233343,52.5766672 10.2899973,52.6866661 10.83,52.8 C11.1500016,52.8600003 11.4649985,52.9316662 11.775,53.015 C12.0850016,53.0983337 12.3599988,53.2166659 12.6,53.37 C12.8400012,53.5233341 13.0333326,53.7216654 13.18,53.965 C13.3266674,54.2083345 13.4,54.5199981 13.4,54.9 C13.4,55.233335 13.3350007,55.5233321 13.205,55.77 C13.0749994,56.0166679 12.9033344,56.2283324 12.69,56.405 C12.4766656,56.5816675 12.2316681,56.7233328 11.955,56.83 C11.678332,56.9366672 11.3933348,57.0099998 11.1,57.05 C11.0599998,57.0566667 11.0050004,57.0616666 10.935,57.065 C10.8649997,57.0683333 10.796667,57.07 10.73,57.07 L10.48,57.07 C10.5600004,57.07 10.6616661,57.1049996 10.785,57.175 C10.908334,57.2450003 10.9833332,57.3566659 11.01,57.51 C11.0166667,57.5633336 11.0233333,57.6199997 11.03,57.68 L11.03,57.75 C11.03,57.8233337 11.0066669,57.8833331 10.96,57.93 C10.9199998,57.9766669 10.8600004,58 10.78,58 L9.92,58 C9.8399996,58 9.77833355,57.9766669 9.735,57.93 C9.69166645,57.8833331 9.67,57.8233337 9.67,57.75 L9.67,57.12 C9.67,57.0733331 9.6466669,57.05 9.6,57.05 C9.3266653,57.0099998 9.056668,56.9433338 8.79,56.85 C8.523332,56.7566662 8.2833344,56.6300008 8.07,56.47 C7.8566656,56.3099992 7.68166735,56.1166678 7.545,55.89 C7.40833265,55.6633322 7.3366667,55.3966682 7.33,55.09 C7.33,55.0299997 7.3499998,54.9800002 7.39,54.94 C7.4366669,54.8999998 7.4899997,54.88 7.55,54.88 L8.87,54.88 C8.9100002,54.88 8.9466665,54.8849999 8.98,54.895 C9.0133335,54.905 9.0433332,54.9133333 9.07,54.92 C9.1233336,54.9533335 9.1733331,54.9999997 9.22,55.06 C9.4333344,55.4266685 9.8133306,55.61 10.36,55.61 C10.4600005,55.61 10.5749994,55.6033334 10.705,55.59 C10.8350007,55.5766666 10.9583328,55.5483335 11.075,55.505 C11.1916673,55.4616664 11.288333,55.4000004 11.365,55.32 C11.4416671,55.2399996 11.4833333,55.1300007 11.49,54.99 C11.49,54.8166658 11.4200007,54.6883337 11.28,54.605 C11.1399993,54.5216662 11.0000007,54.4566669 10.86,54.41 C10.7466661,54.3766665 10.6116675,54.3400002 10.455,54.3 C10.2983326,54.2599998 10.1166677,54.2200002 9.91,54.18 C9.6033318,54.1199997 9.3066681,54.0433338 9.02,53.95 C8.7333319,53.8566662 8.4766678,53.7283341 8.25,53.565 C8.0233322,53.4016658 7.843334,53.2000012 7.71,52.96 C7.576666,52.7199988 7.51,52.4200018 7.51,52.06 C7.51,51.7599985 7.5666661,51.4916678 7.68,51.255 C7.7933339,51.0183321 7.94499905,50.8133342 8.135,50.64 C8.32500095,50.4666658 8.5466654,50.3266672 8.8,50.22 C9.0533346,50.1133328 9.3199986,50.04 9.6,50 C9.6200001,49.9933333 9.6899994,49.9833334 9.81,49.97 C9.92995245,49.9566719 10.0632256,49.9466747 10.2098235,49.940008 L10.2029747,49.9395571 Z M19.6,55.44 C19.6800004,55.44 19.7399998,55.4633331 19.78,55.51 C19.8266669,55.5500002 19.85,55.6066663 19.85,55.68 L19.85,56.75 C19.85,56.816667 19.8266669,56.8733331 19.78,56.92 C19.7333331,56.9733336 19.6733337,57 19.6,57 L14.42,57 C14.353333,57 14.2950003,56.9750002 14.245,56.925 C14.1949998,56.8749997 14.17,56.816667 14.17,56.75 L14.17,56 C14.17,55.799999 14.2533325,55.6366673 14.42,55.51 C14.8000019,55.176665 15.1499984,54.8733347 15.47,54.6 C15.6633343,54.4333325 15.8199994,54.2983338 15.94,54.195 C16.0600006,54.0916661 16.1749995,53.9933338 16.285,53.9 C16.3950006,53.8066662 16.4933329,53.721667 16.58,53.645 C16.6666671,53.5683329 16.7299998,53.5133335 16.77,53.48 C16.8566671,53.4066663 16.9583328,53.3200005 17.075,53.22 C17.1916673,53.1199995 17.2999995,53.0116672 17.4,52.895 C17.5000005,52.7783327 17.5849997,52.6566673 17.655,52.53 C17.7250004,52.4033327 17.76,52.2766673 17.76,52.15 C17.76,51.6566642 17.5133358,51.41 17.02,51.41 C16.7599987,51.41 16.5616674,51.4883325 16.425,51.645 C16.2883327,51.8016674 16.1966669,51.9966655 16.15,52.23 C16.1099998,52.3833341 15.9966676,52.46 15.81,52.46 L14.5,52.46 C14.4399997,52.46 14.3883336,52.4400002 14.345,52.4 C14.3016665,52.3599998 14.28,52.3100003 14.28,52.25 C14.2866667,51.8699981 14.3683326,51.5350014 14.525,51.245 C14.6816675,50.9549985 14.8866654,50.710001 15.14,50.51 C15.3933346,50.309999 15.6833317,50.1583338 16.01,50.055 C16.3366683,49.9516661 16.6733316,49.9 17.02,49.9 C17.3666684,49.9 17.7016651,49.9416662 18.025,50.025 C18.348335,50.1083337 18.6333321,50.2366658 18.88,50.41 C19.1266679,50.5833342 19.3249993,50.8066653 19.475,51.08 C19.6250008,51.3533347 19.7,51.6799981 19.7,52.06 C19.7,52.5466691 19.5533348,52.9799981 19.26,53.36 C19.2199998,53.4066669 19.1583338,53.4733329 19.075,53.56 C18.9916663,53.6466671 18.8966672,53.7433328 18.79,53.85 C18.6833328,53.9566672 18.5666673,54.0699994 18.44,54.19 C18.3133327,54.3100006 18.1866673,54.4266661 18.06,54.54 C17.7599985,54.8200014 17.4333351,55.1199984 17.08,55.44 L19.6,55.44 Z M23.7,57.1 C22.7799954,57.0933333 22.0800024,56.8500024 21.6,56.37 C21.1199976,55.8899976 20.8566669,55.2566706 20.81,54.47 C20.7966666,54.1099982 20.79,53.7866681 20.79,53.5 C20.79,53.2066652 20.7966666,52.8733352 20.81,52.5 C20.8366668,51.9999975 20.9616656,51.5550019 21.185,51.165 C21.4083345,50.774998 21.7316646,50.4666678 22.155,50.24 C22.5783355,50.0133322 23.0933303,49.9 23.7,49.9 C24.3066697,49.9 24.8233312,50.0133322 25.25,50.24 C25.6766688,50.4666678 26.0016656,50.774998 26.225,51.165 C26.4483345,51.5550019 26.5733332,51.9999975 26.6,52.5 C26.6133334,52.6866676 26.62,53.0199976 26.62,53.5 C26.62,53.966669 26.6133334,54.2899991 26.6,54.47 C26.5533331,55.2566706 26.29,55.8899976 25.81,56.37 C25.3299976,56.8500024 24.6266713,57.0933333 23.7,57.1 Z M23.7,55.59 C24.0133349,55.59 24.2466659,55.4883343 24.4,55.285 C24.5533341,55.0816656 24.6366666,54.7933352 24.65,54.42 C24.6633334,54.2266657 24.67,53.9133355 24.67,53.48 C24.67,53.0466645 24.6633334,52.7400009 24.65,52.56 C24.6366666,52.1999982 24.5533341,51.915001 24.4,51.705 C24.2466659,51.4949989 24.0133349,51.39 23.7,51.39 C23.099997,51.39 22.7833335,51.7799961 22.75,52.56 C22.7433333,52.7400009 22.74,53.0466645 22.74,53.48 C22.74,53.9133355 22.7433333,54.2266657 22.75,54.42 C22.7833335,55.2000039 23.099997,55.59 23.7,55.59 Z"/><rect width="31" height="21" x="8.5" y="8.5" stroke="#ff5845" stroke-width="3"/><rect width="11" height="3" x="7" y="36" fill="#ff5845"/><rect width="28" height="3" x="7" y="42" fill="#ff5845"/><path fill="#ff5845" fill-rule="nonzero" d="M17.0084642,23.4870967 C17.0069705,23.5003696 17,23.5122204 17,23.5259674 C17,23.5425585 17.0084642,23.5567795 17.0104557,23.5733706 C17.013941,23.6056048 17.0199157,23.636417 17.0303714,23.6672291 C17.0403293,23.6970931 17.0517808,23.723639 17.0672155,23.7501848 C17.0816543,23.7762566 17.0985827,23.7994842 17.1184984,23.8222378 C17.1409035,23.8483096 17.1648023,23.8701151 17.1916885,23.8909725 C17.2051316,23.9009272 17.2130979,23.9156222 17.2275368,23.9241548 C17.2434693,23.9341095 17.2608955,23.9379017 17.2778239,23.9459603 C17.2937564,23.9540188 17.3091911,23.9611293 17.3266173,23.9672917 C17.3823813,23.9867271 17.4401368,24 17.4978923,24 L17.4983901,24 L31.5016099,24 L31.5021077,24 C31.5598632,24 31.6171209,23.9867271 31.6733827,23.9672917 C31.690311,23.9611293 31.7057457,23.9540188 31.7221761,23.9459603 C31.7386066,23.9379017 31.7560328,23.9341095 31.7724632,23.9241548 C31.7869021,23.9151482 31.7948684,23.9009272 31.8083115,23.8909725 C31.8356956,23.8701151 31.8595944,23.8483096 31.8815016,23.8222378 C31.9014173,23.7990102 31.9178478,23.7757826 31.9327845,23.7501848 C31.9482192,23.723639 31.9601686,23.6970931 31.9696286,23.6677031 C31.9800843,23.636417 31.986059,23.6056048 31.9895443,23.5733706 C31.9915358,23.5572535 32,23.5430325 32,23.5259674 C32,23.5122204 31.9930295,23.5003696 31.9915358,23.4870967 C31.9885485,23.4553365 31.9810801,23.4249984 31.9716201,23.3941863 C31.9616623,23.3629001 31.9512066,23.3335101 31.935274,23.3055422 C31.9288014,23.2936914 31.9278056,23.2799444 31.9203372,23.2685676 L26.4435224,15.2100127 C26.4425266,15.2085906 26.4405351,15.2076426 26.4395393,15.2062205 C26.4221131,15.1806227 26.394729,15.1621354 26.3718259,15.1403299 C26.3479271,15.1171023 26.3270156,15.0905565 26.2991337,15.0725433 C26.29764,15.0715952 26.2966442,15.0696991 26.2951505,15.068751 C26.2747369,15.0564262 26.251336,15.054056 26.2299266,15.0441013 C26.1940784,15.0284582 26.1587281,15.010445 26.1198925,15.0033345 C26.0885252,14.9971721 26.0566601,15.0014384 26.024795,15.0014384 C25.9929299,15.0014384 25.9615627,14.9971721 25.9296976,15.0033345 C25.8918578,15.010445 25.8575032,15.0279842 25.8226508,15.0431532 C25.8002456,15.0531079 25.7758489,15.0554781 25.7544395,15.068751 C25.752448,15.0696991 25.7519501,15.0715952 25.7499585,15.0730173 C25.7235702,15.0891344 25.7041524,15.1152062 25.6812494,15.1370117 C25.6568527,15.1597653 25.6289707,15.1796746 25.6100508,15.2062205 C25.609055,15.2076426 25.6070634,15.2085906 25.6060676,15.2100127 L22.5649417,19.6844068 L21.4586252,18.0565787 C21.4576294,18.0551566 21.4556378,18.0542086 21.454642,18.0527865 C21.4377137,18.0276628 21.4108275,18.0096495 21.3884223,17.988318 C21.3640256,17.9641424 21.3426163,17.9371225 21.3147343,17.9191093 C21.3132406,17.9181612 21.3122448,17.9162651 21.3107512,17.915317 C21.2908355,17.9029922 21.2679324,17.900622 21.2465231,17.8911414 C21.2106748,17.8750242 21.1748266,17.857011 21.1354931,17.8494265 C21.1041259,17.8437381 21.0722608,17.8480044 21.0403957,17.8480044 C21.0085306,17.8480044 20.9771633,17.8437381 20.9452982,17.8494265 C20.9069605,17.857011 20.872606,17.8750242 20.8372556,17.8901933 C20.8148505,17.900148 20.7909516,17.9020441 20.7700402,17.915317 C20.7685465,17.9162651 20.7675507,17.9181612 20.766057,17.9191093 C20.738673,17.9361745 20.7187573,17.9627203 20.6953563,17.9849998 C20.6714575,18.0072794 20.6435755,18.0267147 20.6256514,18.0527865 C20.6246556,18.0542086 20.6226641,18.0551566 20.6216683,18.0565787 L17.0791649,23.2680936 C17.0711986,23.2794704 17.0702028,23.2932173 17.0642281,23.3050681 C17.0482955,23.3330361 17.0373419,23.3619521 17.027882,23.3932382 C17.018422,23.4249984 17.0114515,23.4553365 17.0084642,23.4870967 L17.0084642,23.4870967 Z"/></g></svg>