<?xml version="1.0" encoding="utf-8"?>
<!-- Generator: Adobe Illustrator 23.0.1, SVG Export Plug-In . SVG Version: 6.00 Build 0)  -->
<svg version="1.1" id="Layer_1" xmlns="http://www.w3.org/2000/svg" xmlns:xlink="http://www.w3.org/1999/xlink" x="0px" y="0px"
	 viewBox="0 0 25 25" style="enable-background:new 0 0 25 25;" xml:space="preserve">
<style type="text/css">
	.st0{fill:#FF6845;}
</style>
<g>
	<path class="st0" d="M7,11.62L1.94,7.22C1.18,6.57,0,7.1,0,8.11v8.79c0,1,1.18,1.54,1.94,0.88L7,13.38
		C7.54,12.92,7.54,12.08,7,11.62z"/>
	<path class="st0" d="M15.8,11.62l-5.06-4.39C9.98,6.57,8.8,7.1,8.8,8.11v8.79c0,1,1.18,1.54,1.94,0.88l5.06-4.39
		C16.34,12.92,16.34,12.08,15.8,11.62z"/>
	<path class="st0" d="M24.6,11.62l-5.06-4.39C18.78,6.57,17.6,7.1,17.6,8.11v8.79c0,1,1.18,1.54,1.94,0.88l5.06-4.39
		C25.13,12.92,25.13,12.08,24.6,11.62z"/>
</g>
</svg>
