<?xml version="1.0" encoding="utf-8"?>
<!-- Generator: Adobe Illustrator 23.0.1, SVG Export Plug-In . SVG Version: 6.00 Build 0)  -->
<svg version="1.1" id="Layer_1" xmlns="http://www.w3.org/2000/svg" xmlns:xlink="http://www.w3.org/1999/xlink" x="0px" y="0px"
	 viewBox="0 0 200 200" style="enable-background:new 0 0 200 200;" xml:space="preserve">
<style type="text/css">
	.st0{fill:#FF6845;}
</style>
<g>
	<g>
		<path class="st0" d="M158.38,137.85H83.25c-10.68,0-20.4-6.71-24.17-16.7L33.12,52.48c-0.07-0.17-0.14-0.35-0.2-0.53l-4.8-12.71
			c-1-2.64-3.52-4.39-6.35-4.39l-11.71,0c-5.16,0-9.78-3.87-10.05-9.02C-0.27,20.34,4.1,15.8,9.53,15.8h12.24
			c10.75,0,20.38,6.65,24.18,16.71l0,0c1.55,4.1,5.47,6.81,9.86,6.81l117.58,0c4.76,0,9.53,1.03,13.64,3.42
			c11.12,6.47,15.41,19.44,11.63,30.67l-15.78,46.85C179.34,130.78,169.5,137.85,158.38,137.85z M58.68,66.2l18.22,48.21
			c1,2.64,3.52,4.39,6.35,4.39h75.13c2.92,0,5.5-1.85,6.43-4.62l15.78-46.85c0.7-2.1,0.37-4.33-0.92-6.13
			c-1.29-1.8-3.3-2.83-5.51-2.83H64.09C60.05,58.38,57.25,62.42,58.68,66.2z"/>
	</g>
	<g>
		<circle class="st0" cx="91.62" cy="167.95" r="16.25"/>
		<circle class="st0" cx="152.57" cy="167.95" r="16.25"/>
	</g>
	<path class="st0" d="M140.52,84.03H127.1V70.6c0-2.52-2.04-4.56-4.56-4.56s-4.56,2.04-4.56,4.56v13.43h-13.43
		c-2.52,0-4.56,2.04-4.56,4.56c0,2.52,2.04,4.56,4.56,4.56h13.43v13.43c0,2.52,2.04,4.56,4.56,4.56s4.56-2.04,4.56-4.56V93.14h13.43
		c2.52,0,4.56-2.04,4.56-4.56C145.08,86.07,143.04,84.03,140.52,84.03z"/>
</g>
</svg>
