<?xml version="1.0" encoding="utf-8"?>
<!-- Generator: Adobe Illustrator 23.0.1, SVG Export Plug-In . SVG Version: 6.00 Build 0)  -->
<svg version="1.1" id="Layer_1" xmlns="http://www.w3.org/2000/svg" xmlns:xlink="http://www.w3.org/1999/xlink" x="0px" y="0px"
	 viewBox="0 0 25 25" style="enable-background:new 0 0 25 25;" xml:space="preserve">
<style type="text/css">
	.st0{fill:#FF6845;}
</style>
<g>
	<path class="st0" d="M21.45,1.96H0.4C0.18,1.96,0,1.78,0,1.56V0.45c0-0.22,0.18-0.4,0.4-0.4h21.05c0.22,0,0.4,0.18,0.4,0.4v1.11
		C21.86,1.78,21.68,1.96,21.45,1.96z"/>
	<path class="st0" d="M17.78,7.71H0.4C0.18,7.71,0,7.53,0,7.31V6.2c0-0.22,0.18-0.4,0.4-0.4h17.38c0.22,0,0.4,0.18,0.4,0.4v1.11
		C18.18,7.53,18,7.71,17.78,7.71z"/>
	<path class="st0" d="M14.64,11.57l-1.9,1.9H0.65C0.29,13.46,0,13.17,0,12.8v-0.61c0-0.35,0.29-0.64,0.64-0.64h13.89
		C14.57,11.55,14.61,11.55,14.64,11.57z"/>
	<path class="st0" d="M0.65,17.29h9.33c-0.1,0.18-0.16,0.37-0.23,0.56L9.31,19.2H0.65C0.29,19.2,0,18.91,0,18.56v-0.63
		C0,17.58,0.29,17.29,0.65,17.29z"/>
	<path class="st0" d="M14.79,24.95H0.4c-0.22,0-0.4-0.18-0.4-0.4v-1.11c0-0.22,0.18-0.4,0.4-0.4h14.38c0.22,0,0.4,0.18,0.4,0.4v1.11
		C15.19,24.77,15.01,24.95,14.79,24.95z"/>
	<path class="st0" d="M19.97,8.53l3.38,3.38l-6.86,6.88c-0.84,0.82-1.85,1.44-2.96,1.8l-2.19,0.72c-0.06,0.02-0.13,0.03-0.19,0.03
		c-0.4,0-0.72-0.4-0.58-0.82l0.44-1.32l0.27-0.85c0.13-0.37,0.27-0.72,0.45-1.06c0.34-0.71,0.8-1.35,1.37-1.9L19.97,8.53z"/>
	<path class="st0" d="M24.39,10.87l-0.14,0.14l-3.38-3.39l0.12-0.12c0.42-0.42,0.95-0.61,1.5-0.61c0.53,0,1.08,0.19,1.48,0.61
		l0.42,0.4C25.21,8.73,25.21,10.05,24.39,10.87z"/>
</g>
</svg>
