<?xml version="1.0" encoding="utf-8"?>
<!-- Generator: Adobe Illustrator 23.0.1, SVG Export Plug-In . SVG Version: 6.00 Build 0)  -->
<svg version="1.1" id="Layer_1" xmlns="http://www.w3.org/2000/svg" xmlns:xlink="http://www.w3.org/1999/xlink" x="0px" y="0px"
	 viewBox="0 0 25 25" style="enable-background:new 0 0 25 25;" xml:space="preserve">
<style type="text/css">
	.st0{fill:#FF6845;}
</style>
<g>
	<path class="st0" d="M23,2l0.02,14.55L2,16.56L1.98,2H23 M23.02,0H1.98C0.89,0,0,0.89,0,1.98v14.58c0,1.09,0.89,1.98,1.98,1.98
		h21.04c1.09,0,1.98-0.89,1.98-1.98V1.98C25,0.89,24.11,0,23.02,0L23.02,0z"/>
	<g>
		<circle class="st0" cx="15.22" cy="6.22" r="1.89"/>
		<path class="st0" d="M13.19,11.45c0.23,0.26,0.23,0.64,0,0.9l-2.16,2.45c-0.19,0.21-0.46,0.33-0.74,0.33H4.37
			c-0.59,0-0.9-0.69-0.51-1.13l5.28-5.98c0.27-0.31,0.75-0.31,1.02,0L13.19,11.45z"/>
		<g>
			<path class="st0" d="M20.63,15.14H13.6c-0.59,0-0.9-0.69-0.51-1.13l1.18-1.33l2.34-2.64c0.27-0.31,0.75-0.31,1.02,0L21.14,14
				C21.53,14.44,21.22,15.14,20.63,15.14z"/>
		</g>
	</g>
	<path class="st0" d="M6.04,25H0.62C0.28,25,0,24.72,0,24.38v-3.11c0-0.34,0.28-0.62,0.62-0.62h5.41c0.34,0,0.62,0.28,0.62,0.62
		v3.11C6.66,24.72,6.38,25,6.04,25z"/>
	<path class="st0" d="M15.21,25H9.79c-0.34,0-0.62-0.28-0.62-0.62v-3.11c0-0.34,0.28-0.62,0.62-0.62h5.41
		c0.34,0,0.62,0.28,0.62,0.62v3.11C15.83,24.72,15.55,25,15.21,25z"/>
	<path class="st0" d="M24.38,25h-5.41c-0.34,0-0.62-0.28-0.62-0.62v-3.11c0-0.34,0.28-0.62,0.62-0.62h5.41
		c0.34,0,0.62,0.28,0.62,0.62v3.11C25,24.72,24.72,25,24.38,25z"/>
</g>
</svg>
