<?xml version="1.0" encoding="utf-8"?>
<!-- Generator: Adobe Illustrator 23.0.1, SVG Export Plug-In . SVG Version: 6.00 Build 0)  -->
<svg version="1.1" id="Layer_1" xmlns="http://www.w3.org/2000/svg" xmlns:xlink="http://www.w3.org/1999/xlink" x="0px" y="0px"
	 viewBox="0 0 25 25" style="enable-background:new 0 0 25 25;" xml:space="preserve">
<style type="text/css">
	.st0{fill:#FF6845;}
</style>
<g>
	<path class="st0" d="M22.19,13.43c0.13-0.65,0.19-1.33,0.19-2.02c0-6.17-5.02-11.19-11.19-11.19C5.02,0.21,0,5.24,0,11.4
		s5.02,11.2,11.19,11.2c0.92,0,1.81-0.11,2.66-0.32c1.12,1.52,2.93,2.5,4.96,2.5c3.42,0,6.19-2.77,6.19-6.19
		C25,16.43,23.88,14.51,22.19,13.43z M18.81,22.89c-1.19,0-2.27-0.49-3.05-1.27c-0.45-0.45-0.8-1.01-1.01-1.62
		c-0.16-0.44-0.24-0.92-0.24-1.41c0-2.37,1.93-4.3,4.3-4.3c0.4,0,0.8,0.06,1.17,0.17c0.62,0.17,1.19,0.48,1.67,0.91
		c0.89,0.78,1.46,1.94,1.46,3.22C23.11,20.96,21.18,22.89,18.81,22.89z M11.19,20.71c-5.13,0-9.31-4.17-9.31-9.31
		c0-5.13,4.18-9.31,9.31-9.31s9.31,4.18,9.31,9.31c0,0.42-0.03,0.83-0.09,1.23c-0.51-0.15-1.05-0.22-1.6-0.22
		c-3.41,0-6.18,2.77-6.18,6.18c0,0.68,0.11,1.34,0.32,1.95C12.38,20.65,11.79,20.71,11.19,20.71z"/>
	<path class="st0" d="M21.12,18.13h-0.98h-0.86v-1.84c0-0.07-0.01-0.14-0.05-0.19c-0.07-0.17-0.23-0.28-0.42-0.28
		c-0.26,0-0.47,0.21-0.47,0.47v1.08v0.76h-0.71H16.5c-0.26,0-0.47,0.21-0.47,0.47c0,0.25,0.2,0.46,0.45,0.47c0.01,0,0.01,0,0.02,0
		h1.84v0.94v0.9c0,0.26,0.21,0.47,0.47,0.47c0.26,0,0.47-0.21,0.47-0.47v-1.78c0.02-0.02,0.04-0.04,0.06-0.06h1.78
		c0.26,0,0.47-0.21,0.47-0.47S21.38,18.13,21.12,18.13z"/>
	<path class="st0" d="M10.65,6.68c0.78,0.34,1.76,0,1.98-0.75c0.24-0.83-0.31-1.54-0.95-1.75C10.84,3.88,9.94,4.21,9.7,4.93
		C9.44,5.7,10.05,6.4,10.65,6.68z"/>
	<path class="st0" d="M11.92,12.61c-0.69,1.33-1.52,2.46-2,2.85c-0.34,0.25-0.48,0.13-0.3-1c0.46-2.75,1.71-5.57,1.78-5.75
		c0.19-0.61-1.98-1.05-2.57-0.96c0,0-0.04,0.08-0.12,0.35c-0.23,0.83-0.67,2.25-1.17,3.94c-0.9,2.99-0.09,4.59,0.67,4.91
		c0.5,0.2,1.14-0.13,1.91-0.96c0.69-0.73,1.36-1.84,1.99-2.95c0.25-0.43,0.31-0.73,0.31-0.85C12.42,11.81,12.32,11.88,11.92,12.61z"
		/>
</g>
</svg>
