<?xml version="1.0" encoding="utf-8"?>
<!-- Generator: Adobe Illustrator 23.0.1, SVG Export Plug-In . SVG Version: 6.00 Build 0)  -->
<svg version="1.1" id="Layer_1" xmlns="http://www.w3.org/2000/svg" xmlns:xlink="http://www.w3.org/1999/xlink" x="0px" y="0px"
	 viewBox="0 0 25 25" style="enable-background:new 0 0 25 25;" xml:space="preserve">
<style type="text/css">
	.st0{fill:#FF6845;}
</style>
<g>
	<path class="st0" d="M17.22,10.6l-3.32,0.16c-0.64,0.03-1.16,0.54-1.19,1.19l-0.15,3.32c-0.02,0.35,0.12,0.69,0.36,0.94l6.47,6.47
		c0.49,0.49,1.28,0.49,1.77,0l3.48-3.48c0.49-0.49,0.49-1.28,0-1.77l-6.47-6.47C17.91,10.72,17.57,10.58,17.22,10.6z M15.53,13.58
		c-0.4,0.4-1.06,0.41-1.46,0c-0.4-0.4-0.4-1.06,0-1.47c0.4-0.4,1.06-0.4,1.46,0C15.94,12.52,15.94,13.18,15.53,13.58z"/>
	<g>
		<path class="st0" d="M18.44,1.95H3.16C1.41,1.95,0,3.37,0,5.11v10.97c0,1.74,1.41,3.16,3.16,3.16h10.91l-1.78-1.78H3.16
			c-0.76,0-1.38-0.62-1.38-1.39V5.11c0-0.76,0.62-1.38,1.38-1.38h15.29c0.76,0,1.38,0.62,1.38,1.38v5.64l1.78,1.78V5.11
			C21.6,3.37,20.19,1.95,18.44,1.95z"/>
	</g>
</g>
</svg>
