<?xml version="1.0" encoding="utf-8"?>
<!-- Generator: Adobe Illustrator 23.0.1, SVG Export Plug-In . SVG Version: 6.00 Build 0)  -->
<svg version="1.1" id="Layer_1" xmlns="http://www.w3.org/2000/svg" xmlns:xlink="http://www.w3.org/1999/xlink" x="0px" y="0px"
	 viewBox="0 0 25 25" style="enable-background:new 0 0 25 25;" xml:space="preserve">
<style type="text/css">
	.st0{fill:#FF6845;}
</style>
<g>
	<path class="st0" d="M24.98,9.84l-0.76-6.71c-0.14-1.23-1.11-2.2-2.34-2.34l-6.71-0.76c-0.8-0.09-1.61,0.19-2.18,0.76L0.78,12.99
		c-1.04,1.04-1.04,2.72,0,3.76l7.48,7.48c1.04,1.04,2.72,1.04,3.76,0l12.21-12.21C24.79,11.44,25.07,10.64,24.98,9.84z M21.65,3.35
		c0.69,0.69,0.69,1.81,0,2.5c-0.69,0.69-1.8,0.69-2.49,0c-0.69-0.69-0.69-1.8,0-2.49C19.85,2.66,20.96,2.66,21.65,3.35z M8.67,18.18
		c-0.16-0.09-0.36-0.08-0.49,0.05l-0.83,0.83c-0.35,0.35-0.93,0.36-1.28,0c-0.35-0.35-0.35-0.93,0-1.28l0.77-0.77
		c0.14-0.14,0.15-0.35,0.04-0.52c-0.5-0.73-0.73-1.52-0.7-2.32c0.01-0.54,0.53-0.94,1.06-0.85L7.6,13.4
		c0.41,0.07,0.72,0.43,0.74,0.85c0.03,0.57,0.29,1.08,0.75,1.54c0.72,0.72,1.49,0.9,1.89,0.5c0.55-0.55,0.09-1.9-0.31-3.08
		c-0.43-1.28-0.9-2.68,0.31-3.89c1-1,2.38-1.09,3.6-0.47c0.16,0.08,0.35,0.06,0.48-0.06l0.85-0.85c0.35-0.35,0.93-0.35,1.28,0
		c0.35,0.35,0.35,0.93,0,1.28l-0.8,0.8c-0.13,0.13-0.14,0.33-0.05,0.48c0.34,0.57,0.51,1.19,0.45,1.81
		c-0.05,0.51-0.55,0.85-1.06,0.76l-0.23-0.04c-0.41-0.07-0.76-0.39-0.79-0.81c-0.04-0.41-0.25-0.78-0.53-1.07
		c-0.57-0.57-1.32-0.66-1.71-0.27c-0.45,0.45-0.03,1.18,0.43,2.46c0.67,1.85,0.82,3.28-0.35,4.44
		C11.48,18.87,10.03,18.95,8.67,18.18z"/>
</g>
</svg>
