<?xml version="1.0" encoding="utf-8"?>
<!-- Generator: Adobe Illustrator 23.0.1, SVG Export Plug-In . SVG Version: 6.00 Build 0)  -->
<svg version="1.1" id="Layer_1" xmlns="http://www.w3.org/2000/svg" xmlns:xlink="http://www.w3.org/1999/xlink" x="0px" y="0px"
	 viewBox="0 0 25 25" style="enable-background:new 0 0 25 25;" xml:space="preserve">
<style type="text/css">
	.st0{fill:#FF6845;}
</style>
<path class="st0" d="M24.32,11.82c0.62-0.61,0.84-1.49,0.57-2.32c-0.27-0.82-0.97-1.41-1.83-1.54l-5.57-0.81
	c-0.2-0.03-0.38-0.16-0.47-0.34l-2.49-5.05C14.14,0.98,13.37,0.5,12.5,0.5c-0.87,0-1.64,0.48-2.03,1.26L7.98,6.81
	C7.89,7,7.71,7.12,7.51,7.15L1.94,7.96C1.08,8.09,0.38,8.68,0.11,9.5c-0.27,0.82-0.05,1.71,0.57,2.32l4.03,3.93
	c0.15,0.14,0.21,0.35,0.18,0.55l-0.95,5.55c-0.15,0.85,0.2,1.7,0.9,2.21c0.7,0.51,1.61,0.58,2.38,0.17l4.99-2.62
	c0.18-0.1,0.4-0.1,0.58,0l4.99,2.62c0.33,0.18,0.7,0.26,1.05,0.26c0.47,0,0.93-0.15,1.33-0.43c0.7-0.51,1.05-1.36,0.9-2.21
	L20.1,16.3c-0.03-0.2,0.03-0.41,0.18-0.55L24.32,11.82z M18.49,16.58l0.95,5.55c0.06,0.34-0.15,0.54-0.25,0.61
	c-0.09,0.07-0.35,0.21-0.65,0.05l-4-2.1V5.49l1.01,2.05c0.33,0.67,0.97,1.13,1.7,1.24l5.57,0.81c0.34,0.05,0.47,0.31,0.5,0.42
	c0.04,0.11,0.09,0.39-0.16,0.64l-4.03,3.93C18.6,15.1,18.36,15.84,18.49,16.58z"/>
</svg>
