<?xml version="1.0" encoding="utf-8"?>
<!-- Generator: Adobe Illustrator 23.0.1, SVG Export Plug-In . SVG Version: 6.00 Build 0)  -->
<svg version="1.1" id="Layer_1" xmlns="http://www.w3.org/2000/svg" xmlns:xlink="http://www.w3.org/1999/xlink" x="0px" y="0px"
	 viewBox="0 0 25 25" style="enable-background:new 0 0 25 25;" xml:space="preserve">
<style type="text/css">
	.st0{fill:#FF6845;}
	.st1{fill:#FFFFFF;}
</style>
<g>
	<g>
		<path class="st0" d="M12.53,19.13v1.33c0,0.79-0.64,1.43-1.43,1.43H1.43C0.64,21.89,0,21.24,0,20.45V15.8
			c0-0.79,0.64-1.43,1.43-1.43h6.35c0.7,0,1.36,0.28,1.86,0.77l2.13,2.13C12.26,17.76,12.53,18.43,12.53,19.13z"/>
		<g>
			<g>
				<path class="st1" d="M8.94,17.24H2.55c-0.22,0-0.39-0.17-0.39-0.39s0.17-0.39,0.39-0.39h6.39c0.22,0,0.39,0.17,0.39,0.39
					S9.16,17.24,8.94,17.24z"/>
			</g>
			<g>
				<path class="st1" d="M8.94,19.8H2.55c-0.22,0-0.39-0.17-0.39-0.39s0.17-0.39,0.39-0.39h6.39c0.22,0,0.39,0.17,0.39,0.39
					S9.16,19.8,8.94,19.8z"/>
			</g>
		</g>
	</g>
	<path class="st0" d="M20.08,3.11H9.53c-2.72,0-4.92,2.2-4.92,4.92v4.92h15.47c1.36,0,2.59-0.55,3.49-1.44
		C24.45,10.63,25,9.4,25,8.04C25,5.32,22.8,3.11,20.08,3.11z M11.31,7.68l-0.92,0.89c-0.03,0.03-0.05,0.08-0.04,0.12l0.22,1.27
		c0.02,0.11-0.1,0.2-0.2,0.15l-1.13-0.6c-0.04-0.02-0.09-0.02-0.13,0l-1.13,0.6c-0.1,0.05-0.22-0.03-0.2-0.15l0.22-1.27
		C7.99,8.65,7.97,8.6,7.94,8.57L7.02,7.68C6.94,7.6,6.98,7.46,7.1,7.44l1.27-0.18c0.05-0.01,0.08-0.04,0.1-0.08l0.57-1.15
		c0.05-0.1,0.2-0.1,0.24,0l0.57,1.15c0.02,0.04,0.06,0.07,0.1,0.08l1.27,0.18C11.34,7.46,11.38,7.6,11.31,7.68z M18.05,7.5
		l-1.39,1.35c-0.06,0.05-0.07,0.12-0.06,0.18l0.33,1.92c0.03,0.17-0.15,0.3-0.31,0.22l-1.71-0.9c-0.06-0.03-0.13-0.03-0.2,0
		l-1.72,0.9c-0.15,0.08-0.33-0.05-0.3-0.22l0.33-1.92c0.01-0.06-0.02-0.13-0.06-0.18L11.56,7.5c-0.13-0.13-0.06-0.34,0.12-0.36
		l1.92-0.28c0.07-0.01,0.13-0.06,0.16-0.12L14.62,5c0.07-0.16,0.29-0.16,0.37,0l0.86,1.74c0.03,0.06,0.09,0.11,0.16,0.12l1.93,0.28
		C18.11,7.16,18.17,7.37,18.05,7.5z M22.63,7.68l-0.91,0.89c-0.04,0.03-0.05,0.08-0.04,0.12l0.22,1.27c0.02,0.11-0.1,0.2-0.2,0.15
		l-1.13-0.6c-0.04-0.02-0.09-0.02-0.13,0l-1.14,0.6c-0.1,0.05-0.22-0.03-0.2-0.15l0.22-1.27c0.01-0.04-0.01-0.09-0.04-0.12
		l-0.92-0.89c-0.08-0.08-0.04-0.22,0.08-0.24l1.27-0.18c0.05-0.01,0.08-0.04,0.1-0.08l0.57-1.15c0.05-0.1,0.19-0.1,0.24,0l0.57,1.15
		c0.02,0.04,0.06,0.07,0.1,0.08l1.27,0.18C22.67,7.46,22.71,7.6,22.63,7.68z"/>
</g>
</svg>
