<?xml version="1.0" encoding="utf-8"?>
<!-- Generator: Adobe Illustrator 23.0.1, SVG Export Plug-In . SVG Version: 6.00 Build 0)  -->
<svg version="1.1" id="Layer_1" xmlns="http://www.w3.org/2000/svg" xmlns:xlink="http://www.w3.org/1999/xlink" x="0px" y="0px"
	 viewBox="0 0 200 200" style="enable-background:new 0 0 200 200;" xml:space="preserve">
<style type="text/css">
	.st0{fill:#FF6845;}
</style>
<g>
	<path class="st0" d="M194.57,29.21H5.43c-3,0-5.43,2.43-5.43,5.43v11.12c0,3,2.43,5.43,5.43,5.43h189.13c3,0,5.43-2.43,5.43-5.43
		V34.64C200,31.64,197.57,29.21,194.57,29.21L194.57,29.21z"/>
	<path class="st0" d="M133.89,89.01H5.43c-3,0-5.43,2.43-5.43,5.43v11.12c0,3,2.43,5.43,5.43,5.43h128.45c3,0,5.43-2.43,5.43-5.43
		V94.44C139.32,91.44,136.89,89.01,133.89,89.01L133.89,89.01z"/>
	<path class="st0" d="M165.19,148.81H5.43c-3,0-5.43,2.43-5.43,5.43v11.12c0,3,2.43,5.43,5.43,5.43h159.76c3,0,5.43-2.43,5.43-5.43
		v-11.12C170.63,151.24,168.2,148.81,165.19,148.81L165.19,148.81z"/>
</g>
</svg>
