<?xml version="1.0" encoding="utf-8"?>
<!-- Generator: Adobe Illustrator 23.0.1, SVG Export Plug-In . SVG Version: 6.00 Build 0)  -->
<svg version="1.1" id="Layer_1" xmlns="http://www.w3.org/2000/svg" xmlns:xlink="http://www.w3.org/1999/xlink" x="0px" y="0px"
	 viewBox="0 0 25 25" style="enable-background:new 0 0 25 25;" xml:space="preserve">
<style type="text/css">
	.st0{fill:#FF6845;}
</style>
<g>
	<path class="st0" d="M24.77,7.86C24.77,7.86,24.77,7.86,24.77,7.86c-0.06-0.15-0.18-0.28-0.33-0.36L14.9,2.52
		c-0.27-0.14-0.6-0.14-0.87,0L9.92,4.67C8.87,3.58,7.39,2.89,5.76,2.89C2.59,2.89,0,5.48,0,8.66c0,2.54,1.65,4.7,3.93,5.47v2.51
		c0,0.35,0.19,0.67,0.51,0.83l9.59,5.01c0.14,0.07,0.28,0.11,0.43,0.11c0.15,0,0.3-0.04,0.43-0.11l9.59-5.01
		c0.31-0.16,0.5-0.48,0.5-0.83V8.39C25,8.18,24.92,8,24.77,7.86z M3.93,12.85c-1.61-0.71-2.74-2.32-2.74-4.19
		c0-2.52,2.05-4.58,4.58-4.58c1.17,0,2.24,0.44,3.05,1.16c0.3,0.27,0.57,0.58,0.79,0.93c0.47,0.72,0.74,1.57,0.74,2.49
		c0,0.6-0.11,1.17-0.33,1.69c-0.15,0.37-0.34,0.72-0.58,1.04c-0.84,1.12-2.17,1.85-3.67,1.85c-0.22,0-0.43-0.01-0.64-0.05
		C4.7,13.13,4.3,13.02,3.93,12.85z M13.87,21.06l-8.75-4.57v-2.1c0.21,0.03,0.42,0.04,0.64,0.04c1.96,0,3.69-0.98,4.73-2.48
		l3.38,1.76V21.06z M23.81,16.49l-8.75,4.57v-7.35l0.09-0.05l8.66-4.53V16.49z"/>
	<path class="st0" d="M6.13,10.19l2.45-2.45c0.23-0.23,0.23-0.61,0-0.84s-0.61-0.23-0.84,0L5.29,9.35c-0.07,0.07-0.18,0.07-0.25,0
		L3.78,8.09c-0.23-0.23-0.61-0.23-0.84,0s-0.23,0.61,0,0.84l1.26,1.26c0.27,0.27,0.61,0.4,0.96,0.4
		C5.52,10.59,5.87,10.46,6.13,10.19z"/>
</g>
</svg>
