<?xml version="1.0" encoding="utf-8"?>
<!-- Generator: Adobe Illustrator 23.0.1, SVG Export Plug-In . SVG Version: 6.00 Build 0)  -->
<svg version="1.1" id="Layer_1" xmlns="http://www.w3.org/2000/svg" xmlns:xlink="http://www.w3.org/1999/xlink" x="0px" y="0px"
	 viewBox="0 0 25 25" style="enable-background:new 0 0 25 25;" xml:space="preserve">
<style type="text/css">
	.st0{fill:#FF6845;}
</style>
<g>
	<path class="st0" d="M6.84,6.24H0.78C0.35,6.24,0,5.89,0,5.46V3.08C0,2.65,0.35,2.3,0.78,2.3h6.06c0.43,0,0.78,0.35,0.78,0.78v2.37
		C7.61,5.89,7.27,6.24,6.84,6.24z"/>
	<path class="st0" d="M15.53,3.03c0.03,0,0.06,0.02,0.06,0.06v2.37c0,0.03-0.02,0.06-0.06,0.06H9.47c-0.03,0-0.06-0.02-0.06-0.06
		V3.08c0-0.03,0.02-0.06,0.06-0.06H15.53 M15.53,2.3H9.47c-0.43,0-0.78,0.35-0.78,0.78v2.37c0,0.43,0.35,0.78,0.78,0.78h6.06
		c0.43,0,0.78-0.35,0.78-0.78V3.08C16.31,2.65,15.96,2.3,15.53,2.3L15.53,2.3z"/>
	<path class="st0" d="M24.22,6.24h-6.06c-0.43,0-0.78-0.35-0.78-0.78V3.08c0-0.43,0.35-0.78,0.78-0.78h6.06
		C24.65,2.3,25,2.65,25,3.08v2.37C25,5.89,24.65,6.24,24.22,6.24z"/>
	<path class="st0" d="M20.21,12.48H0.99C0.44,12.48,0,12.04,0,11.49v0c0-0.54,0.44-0.99,0.99-0.99h19.22c0.54,0,0.99,0.44,0.99,0.99
		v0C21.19,12.04,20.75,12.48,20.21,12.48z"/>
	<path class="st0" d="M20.21,22.7H0.99C0.44,22.7,0,22.25,0,21.71v0c0-0.54,0.44-0.99,0.99-0.99h19.22c0.54,0,0.99,0.44,0.99,0.99v0
		C21.19,22.25,20.75,22.7,20.21,22.7z"/>
	<path class="st0" d="M14.02,17.59H0.99C0.44,17.59,0,17.14,0,16.6v0c0-0.54,0.44-0.99,0.99-0.99h13.03c0.54,0,0.99,0.44,0.99,0.99
		v0C15.01,17.14,14.56,17.59,14.02,17.59z"/>
</g>
</svg>
