<?xml version="1.0" encoding="utf-8"?>
<!-- Generator: Adobe Illustrator 23.0.1, SVG Export Plug-In . SVG Version: 6.00 Build 0)  -->
<svg version="1.1" id="Layer_1" xmlns="http://www.w3.org/2000/svg" xmlns:xlink="http://www.w3.org/1999/xlink" x="0px" y="0px"
	 viewBox="0 0 25 25" style="enable-background:new 0 0 25 25;" xml:space="preserve">
<style type="text/css">
	.st0{fill:#FF6845;}
</style>
<g>
	<path class="st0" d="M4.98,0C4.41,0,3.95,0.46,3.95,1.03v2.82v0.49v1.07c0,0.57,0.46,1.03,1.03,1.03h0C5.54,6.44,6,5.98,6,5.41
		V5.36C6,4.8,6.46,4.34,7.03,4.34h2.25c0.57,0,1.03,0.46,1.03,1.03v15.39c0,0.57,0.46,1.03,1.03,1.03h2.34
		c0.57,0,1.03-0.46,1.03-1.03V5.36c0-0.57,0.46-1.03,1.03-1.03h2.24C18.54,4.34,19,4.8,19,5.36v0.04c0,0.57,0.46,1.03,1.03,1.03h0
		c0.57,0,1.03-0.46,1.03-1.03V4.34V3.84V1.03c0-0.57-0.46-1.03-1.03-1.03H4.98z"/>
	<path class="st0" d="M20.22,25H4.78c-0.46,0-0.83-0.37-0.83-0.83v0c0-0.46,0.37-0.83,0.83-0.83h15.44c0.46,0,0.83,0.37,0.83,0.83v0
		C21.05,24.63,20.68,25,20.22,25z"/>
</g>
</svg>
