<?xml version="1.0" encoding="utf-8"?>
<!-- Generator: Adobe Illustrator 25.3.0, SVG Export Plug-In . SVG Version: 6.00 Build 0)  -->
<svg version="1.1" id="Layer_1" xmlns="http://www.w3.org/2000/svg" xmlns:xlink="http://www.w3.org/1999/xlink" x="0px" y="0px"
	 viewBox="0 0 128 128" style="enable-background:new 0 0 128 128;" xml:space="preserve">
<style type="text/css">
	.st0{fill-rule:evenodd;clip-rule:evenodd;fill:url(#SVGID_1_);}
	.st1{fill-rule:evenodd;clip-rule:evenodd;fill:url(#SVGID_2_);}
	.st2{fill-rule:evenodd;clip-rule:evenodd;fill:#FFFFFF;}
	.st3{opacity:0.56;fill-rule:evenodd;clip-rule:evenodd;fill:url(#SVGID_3_);}
	.st4{fill-rule:evenodd;clip-rule:evenodd;fill:url(#SVGID_4_);}
</style>
<g>
	<g>
		<linearGradient id="SVGID_1_" gradientUnits="userSpaceOnUse" x1="2.6147" y1="1.5126" x2="126.0982" y2="127.2131">
			<stop  offset="2.608479e-03" style="stop-color:#FD0A54"/>
			<stop  offset="1" style="stop-color:#B70659"/>
		</linearGradient>
		<rect class="st0" width="128" height="128"/>
	</g>
	<linearGradient id="SVGID_2_" gradientUnits="userSpaceOnUse" x1="125.4747" y1="130.0535" x2="59.6316" y2="57.5595">
		<stop  offset="0" style="stop-color:#000000;stop-opacity:0"/>
		<stop  offset="0.9654" style="stop-color:#000000;stop-opacity:0.1931"/>
		<stop  offset="1" style="stop-color:#000000;stop-opacity:0.2"/>
	</linearGradient>
	<polygon class="st1" points="128,64.4 128,128 64.4,128 32.2,95.8 95.8,32.2 	"/>
	<g>
		<path class="st2" d="M109,63.8V64c0,2.3-0.2,4.6-0.5,6.9c-0.1,0.5-0.2,1.1-0.3,1.6c-1.7,9-6.2,17.1-12.4,23.3
			c-1.5,1.5-3.2,2.9-4.9,4.2c-0.4,0.3-0.8,0.6-1.3,0.9c-1.9,1.3-3.9,2.5-6,3.5c-1.4,0.7-2.8,1.3-4.3,1.8c-2,0.7-4,1.3-6.1,1.7
			c-0.3,0-0.5,0.1-0.8,0.2c-1.9,0.4-3.9,0.6-5.9,0.7c-0.9,0-1.7,0.1-2.6,0.1c-0.7,0-1.4,0-2.1,0c-11.6-0.5-22.1-5.5-29.8-13.1
			C24,87.7,19,76.4,19,64c0-12.4,5-23.7,13.2-31.8S51.6,19,64,19c24.6,0,44.6,19.8,45,44.3C109,63.5,109,63.6,109,63.8z"/>
	</g>
	<linearGradient id="SVGID_3_" gradientUnits="userSpaceOnUse" x1="96.3906" y1="96.1651" x2="58.7026" y2="60.4724">
		<stop  offset="2.608479e-03" style="stop-color:#FFFFFF;stop-opacity:0"/>
		<stop  offset="1" style="stop-color:#B70659"/>
	</linearGradient>
	<path class="st3" d="M54.3,99.4L41.4,86.6l8.9,4.5l6.5,4.5L54.3,99.4z M87.2,42l5,10l2.2,14L92,72.7l-5.5,12.8l-13.5,8.2l10.7,10.8
		c2.1-1,4.1-2.2,6-3.5c0.4-0.3,0.9-0.6,1.3-0.9c1.7-1.3,3.4-2.7,4.9-4.2c6.2-6.2,10.6-14.3,12.4-23.3c0.1-0.5,0.2-1.1,0.3-1.6
		c0.4-2.2,0.5-4.6,0.5-6.9v-0.2L87.2,42z M54,101l8,8c0.7,0,1.4,0,2.1,0c0.9,0,1.7,0,2.6-0.1c2-0.1,4-0.4,5.9-0.7
		c0.3,0,0.5-0.1,0.8-0.2c2.1-0.4,4.1-1,6.1-1.7L65,92.1L54,101z"/>
	<linearGradient id="SVGID_4_" gradientUnits="userSpaceOnUse" x1="32.0504" y1="64.0031" x2="95.9435" y2="64.0031">
		<stop  offset="2.608479e-03" style="stop-color:#FD0A54"/>
		<stop  offset="1" style="stop-color:#B70659"/>
	</linearGradient>
	<path class="st4" d="M47,55.2l3.5,3.5l0.9,0.9l-0.9,0.9L47,64.1c-0.1,0.1-0.1,0.3,0.1,0.4l3.8,2.1v6.9c0,0.3,0.2,0.5,0.4,0.7
		l12.1,6.7c0.1,0.1,0.2,0.1,0.4,0.1c0.1,0,0.2,0,0.2,0c0.1,0,0.2,0,0.2,0c0.1,0,0.3,0,0.4-0.1l12.1-6.7c0.2-0.1,0.4-0.4,0.4-0.7
		v-6.9l3.8-2.1c0.1-0.1,0.2-0.3,0.1-0.4l-4.4-4.4l4.4-4.4c0.1-0.1,0.1-0.3-0.1-0.4l-12.1-6.8c-0.1-0.1-0.2,0-0.3,0l-2.2,2.2
		l-2.1,2.1c-0.1,0.1-0.1,0.3,0.1,0.4l11.9,6.6l0.4,0.2l-0.4,0.2l-11.8,6.6c-0.1,0-0.2,0-0.4,0c-0.1,0-0.2,0-0.4,0l-11.8-6.6
		l-0.4-0.2l0.4-0.2l11.9-6.6c0.1-0.1,0.2-0.3,0.1-0.4l-2.1-2.1l-2.2-2.2c-0.1-0.1-0.2-0.1-0.3,0l-12.1,6.8
		C46.9,54.9,46.9,55.1,47,55.2z M64.5,67.9l3.6,3.6c0.2,0.2,0.6,0.3,0.9,0.1l6.9-3.9v5.5l-11.5,6.4V67.9z M52,67.8l6.9,3.9
		c0.3,0.2,0.7,0.1,0.9-0.1l3.6-3.6v11.7L52,73.3V67.8z M95.9,64c0,7-2.2,13.7-6.5,19.3c-3.8,5-9,8.8-14.9,10.9c-0.8,0.3-1.7-0.2-2-1
		l0,0c-0.2-0.8,0.2-1.6,1-1.9c5.2-1.9,9.9-5.3,13.3-9.8c3.8-5,5.8-11.1,5.8-17.4c0-6.3-2-12.4-5.8-17.4c-3.2-4.3-7.7-7.6-12.7-9.5v6
		c0,0.6-0.7,0.9-1.2,0.6L63,35.9c-0.4-0.3-0.4-0.9,0-1.1L73.1,27c0.5-0.4,1.2,0,1.2,0.6v6.2c6,2,11.4,5.9,15.2,11
		C93.7,50.3,95.9,57,95.9,64z M65,93.2L54.9,101c-0.5,0.4-1.2,0-1.2-0.6v-6.2c-6-2-11.4-5.9-15.2-11C34.3,77.7,32.1,71,32.1,64
		c0-7,2.2-13.7,6.5-19.3c3.8-5,9-8.8,14.9-10.9c0.8-0.3,1.7,0.2,2,1l0,0c0.2,0.8-0.2,1.6-1,1.9c-5.2,1.9-9.9,5.3-13.3,9.8
		c-3.8,5-5.8,11.1-5.8,17.4c0,6.3,2,12.4,5.8,17.4c3.2,4.3,7.7,7.6,12.7,9.5v-6c0-0.6,0.7-0.9,1.2-0.6L65,92.1
		C65.4,92.4,65.4,93,65,93.2z"/>
</g>
</svg>
