<?xml version="1.0" encoding="utf-8"?>
<!-- Generator: Adobe Illustrator 23.0.1, SVG Export Plug-In . SVG Version: 6.00 Build 0)  -->
<svg version="1.1" id="Layer_1" xmlns="http://www.w3.org/2000/svg" xmlns:xlink="http://www.w3.org/1999/xlink" x="0px" y="0px"
	 viewBox="0 0 128 128" style="enable-background:new 0 0 128 128;" xml:space="preserve">
<style type="text/css">
	.st0{fill-rule:evenodd;clip-rule:evenodd;fill:url(#SVGID_1_);}
	.st1{opacity:0.63;fill-rule:evenodd;clip-rule:evenodd;fill:url(#SVGID_2_);}
	.st2{fill-rule:evenodd;clip-rule:evenodd;fill:#FFFFFF;}
	.st3{fill:url(#SVGID_3_);}
</style>
<g>
	<linearGradient id="SVGID_1_" gradientUnits="userSpaceOnUse" x1="135.4681" y1="138.1566" x2="-31.1521" y2="-34.7314">
		<stop  offset="0" style="stop-color:#FF8F6A"/>
		<stop  offset="1" style="stop-color:#FFF655"/>
	</linearGradient>
	<rect class="st0" width="128" height="128"/>
	<linearGradient id="SVGID_2_" gradientUnits="userSpaceOnUse" x1="133.5163" y1="136.4791" x2="59.316" y2="61.639">
		<stop  offset="0" style="stop-color:#000000;stop-opacity:0.177"/>
		<stop  offset="1" style="stop-color:#FFC515;stop-opacity:0.52"/>
	</linearGradient>
	<polygon class="st1" points="128,69.64 128,128 59.49,128 28.92,92.19 97.87,34.34 	"/>
	<g>
		<path class="st2" d="M64,19L64,19c24.85,0,45,20.15,45,45l0,0c0,24.85-20.15,45-45,45l0,0c-24.85,0-45-20.15-45-45l0,0
			C19,39.14,39.15,19,64,19z"/>
	</g>
	
		<linearGradient id="SVGID_3_" gradientUnits="userSpaceOnUse" x1="44.0373" y1="87.1313" x2="106.3351" y2="43.727" gradientTransform="matrix(1 0 0 -1 0 136)">
		<stop  offset="0" style="stop-color:#FF8F6A"/>
		<stop  offset="1" style="stop-color:#FFBE15"/>
	</linearGradient>
	<path class="st3" d="M81.55,63.42h-5.11c-0.37,0-0.72-0.11-1-0.31c-0.37-0.25-0.86-0.22-1.16,0.11l-0.82,0.89
		c-0.36,0.39-0.33,1.01,0.08,1.33c0.8,0.61,1.8,0.98,2.89,0.98h5.11c0.98,0,1.78,0.79,1.78,1.78v6.58c0,1.55-1.26,2.8-2.8,2.8H47.46
		c-1.54,0-2.8-1.25-2.8-2.8V54.22c0-1.55,1.26-2.8,2.8-2.8h11.35c0.98,0,1.78,0.8,1.78,1.78v0.94c0,1.6,0.8,3.03,2.02,3.89
		c0.84,0.6,2,0.52,2.76-0.18l0.56-0.51c0.55-0.5,0.19-1.42-0.55-1.42l0,0c-0.98,0-1.78-0.8-1.78-1.78V53.2
		c0-2.64-2.14-4.78-4.78-4.78H47.47c-3.2,0-5.8,2.6-5.8,5.8v20.56c0,3.2,2.6,5.8,5.8,5.8h33.06c3.2,0,5.8-2.6,5.8-5.8V68.2
		C86.33,65.56,84.19,63.42,81.55,63.42z M49.36,54.91c0,0.92-0.75,1.67-1.67,1.67s-1.67-0.75-1.67-1.67s0.75-1.67,1.67-1.67
		S49.36,53.99,49.36,54.91z M54.36,54.91c0,0.92-0.75,1.67-1.67,1.67s-1.67-0.75-1.67-1.67s0.75-1.67,1.67-1.67
		S54.36,53.99,54.36,54.91z M59.36,54.91c0,0.92-0.75,1.67-1.67,1.67s-1.67-0.75-1.67-1.67s0.75-1.67,1.67-1.67
		S59.36,53.99,59.36,54.91z M67.91,65.03l-2.51-2.51c-0.57-0.57-0.55-1.49,0.04-2.03l11.73-10.77c0.99-0.9,2.51-0.87,3.45,0.07l0,0
		c0.95,0.95,0.98,2.47,0.07,3.45L69.92,64.97C69.4,65.58,68.48,65.6,67.91,65.03z M65.52,71.16c-2.37,2.38-6.62,2.63-9.39,0.84
		c-0.48-0.31-0.91-0.67-1.3-1.08c-0.17-0.18-0.67-0.61-0.62-0.88c0.08-0.4,1.23-0.34,1.53-0.41c0.57-0.12,1.12-0.35,1.62-0.64
		c0.97-0.57,1.79-1.43,2.35-2.38c0.78-1.35,1.06-3.66,2.99-3.85c0.57-0.06,1.12,0.13,1.62,0.46C66.92,64.89,67.79,68.88,65.52,71.16
		z M70.08,51.68h-3.5c-0.88,0-1.59-0.71-1.59-1.59v-3.5c0-0.88,0.71-1.59,1.59-1.59h3.5c0.88,0,1.59,0.71,1.59,1.59v3.5
		C71.68,50.97,70.96,51.68,70.08,51.68z M77.51,46.41h-2.39c-0.6,0-1.09-0.49-1.09-1.09v-2.39c0-0.6,0.49-1.09,1.09-1.09h2.39
		c0.6,0,1.09,0.49,1.09,1.09v2.39C78.6,45.93,78.11,46.41,77.51,46.41z"/>
</g>
</svg>
