<?xml version="1.0" encoding="utf-8"?>
<!-- Generator: Adobe Illustrator 25.3.0, SVG Export Plug-In . SVG Version: 6.00 Build 0)  -->
<svg version="1.1" id="Layer_1" xmlns="http://www.w3.org/2000/svg" xmlns:xlink="http://www.w3.org/1999/xlink" x="0px" y="0px"
	 viewBox="0 0 128 128" style="enable-background:new 0 0 128 128;" xml:space="preserve">
<style type="text/css">
	.st0{fill-rule:evenodd;clip-rule:evenodd;fill:url(#SVGID_1_);}
	.st1{fill-rule:evenodd;clip-rule:evenodd;fill:url(#SVGID_2_);}
	.st2{fill-rule:evenodd;clip-rule:evenodd;fill:#FFFFFF;}
	.st3{fill-rule:evenodd;clip-rule:evenodd;fill:url(#SVGID_3_);}
	.st4{fill-rule:evenodd;clip-rule:evenodd;fill:url(#SVGID_4_);}
	.st5{fill:url(#SVGID_5_);}
	.st6{fill-rule:evenodd;clip-rule:evenodd;fill:url(#SVGID_6_);}
</style>
<g>
	<g>
		<linearGradient id="SVGID_1_" gradientUnits="userSpaceOnUse" x1="2.6147" y1="1.5126" x2="126.0982" y2="127.2131">
			<stop  offset="4.210532e-03" style="stop-color:#AAD5FF"/>
			<stop  offset="1" style="stop-color:#2A73FF"/>
		</linearGradient>
		<rect class="st0" width="128" height="128"/>
	</g>
	<linearGradient id="SVGID_2_" gradientUnits="userSpaceOnUse" x1="125.4747" y1="130.0535" x2="59.6316" y2="57.5595">
		<stop  offset="0" style="stop-color:#000000;stop-opacity:0"/>
		<stop  offset="0.9224" style="stop-color:#000000;stop-opacity:0.1845"/>
		<stop  offset="1" style="stop-color:#000000;stop-opacity:0.2"/>
	</linearGradient>
	<polygon class="st1" points="128,64.4 128,128 64.4,128 32.2,95.8 95.8,32.2 	"/>
	<g>
		<path class="st2" d="M109,64c0,2.3-0.2,4.6-0.5,6.9c-0.1,0.5-0.2,1.1-0.3,1.6c-1.7,9-6.2,17.1-12.4,23.3c-1.5,1.5-3.2,2.9-4.9,4.2
			c-0.4,0.3-0.8,0.6-1.3,0.9c-4.9,3.4-10.4,5.8-16.4,7.1c-0.3,0-0.5,0.1-0.8,0.2c-1.9,0.4-3.9,0.6-5.9,0.7c-0.9,0-1.7,0.1-2.6,0.1
			c-12.4,0-23.7-5-31.8-13.2S19,76.4,19,64s5-23.7,13.2-31.8S51.6,19,64,19c24.6,0,44.6,19.8,45,44.3C109,63.5,109,63.8,109,64z"/>
	</g>
	<linearGradient id="SVGID_3_" gradientUnits="userSpaceOnUse" x1="76.6998" y1="63.5102" x2="105.52" y2="79.4722">
		<stop  offset="0" style="stop-color:#4D8EFF;stop-opacity:0.2"/>
		<stop  offset="0.1682" style="stop-color:#7BABFF;stop-opacity:0.2"/>
		<stop  offset="0.3642" style="stop-color:#AAC9FF;stop-opacity:0.2"/>
		<stop  offset="0.5515" style="stop-color:#CFE0FF;stop-opacity:0.2"/>
		<stop  offset="0.725" style="stop-color:#E9F1FF;stop-opacity:0.2"/>
		<stop  offset="0.8797" style="stop-color:#F9FBFF;stop-opacity:0.2"/>
		<stop  offset="1" style="stop-color:#FFFFFF;stop-opacity:0.2"/>
	</linearGradient>
	<path class="st3" d="M109,64c0,2.3-0.2,4.6-0.5,6.9c-0.1,0.5-0.2,1.1-0.3,1.6c-1.7,9-6.2,17.1-12.4,23.3c-1.5,1.5-3.2,2.9-4.9,4.2
		L72,81.1l3.6-5l9.6-36.5L109,63.3C109,63.5,109,63.8,109,64z"/>
	<linearGradient id="SVGID_4_" gradientUnits="userSpaceOnUse" x1="60.4217" y1="87.1428" x2="79.5717" y2="106.2929">
		<stop  offset="0" style="stop-color:#4D8EFF;stop-opacity:0.2"/>
		<stop  offset="0.1175" style="stop-color:#5392FF;stop-opacity:0.2"/>
		<stop  offset="0.274" style="stop-color:#649CFF;stop-opacity:0.2"/>
		<stop  offset="0.4525" style="stop-color:#80AEFF;stop-opacity:0.2"/>
		<stop  offset="0.6473" style="stop-color:#A6C7FF;stop-opacity:0.2"/>
		<stop  offset="0.853" style="stop-color:#D7E6FF;stop-opacity:0.2"/>
		<stop  offset="1" style="stop-color:#FFFFFF;stop-opacity:0.2"/>
	</linearGradient>
	<path class="st4" d="M89.6,101c-4.9,3.4-10.4,5.8-16.4,7.1c-0.3,0-0.5,0.1-0.8,0.2c-1.9,0.4-3.9,0.6-5.9,0.7L43.3,85.7l9.6,2.7
		l20.8-3.6L89.6,101z"/>
	<g>
		<linearGradient id="SVGID_5_" gradientUnits="userSpaceOnUse" x1="31.8625" y1="61.8386" x2="71.7674" y2="91.7673">
			<stop  offset="4.210532e-03" style="stop-color:#AAD5FF"/>
			<stop  offset="1" style="stop-color:#2A73FF"/>
		</linearGradient>
		<path class="st5" d="M73.6,90.7c-12.8,13.6-30.3-5-30.3-5s-18.7-17.5-5-30.3c1.7-1.6,4.2-1.6,5.9-0.1c0.2,0.2,0.3,0.3,0.5,0.5
			c1.7,1.6,3.5,3.6,3.9,6c0.2,1.2,0.1,2.5-0.4,3.6c-0.8,1.7-2.2,2.5-3.3,3.8c-1.4,1.8-0.3,4.3,0.8,5.9c2,2.9,4.5,5.5,7.3,7.6
			c1.8,1.3,4.7,3.1,6.8,1.4c1.4-1.1,2.2-2.5,3.9-3.3c1.1-0.5,2.4-0.7,3.6-0.4c2.4,0.5,4.4,2.2,6,3.9c0.2,0.2,0.3,0.3,0.5,0.5
			C75.2,86.5,75.2,89.1,73.6,90.7z"/>
		<linearGradient id="SVGID_6_" gradientUnits="userSpaceOnUse" x1="64.8034" y1="37.6563" x2="82.3181" y2="72.2308">
			<stop  offset="0" style="stop-color:#AAD5FF"/>
			<stop  offset="1" style="stop-color:#2A73FF"/>
		</linearGradient>
		<path class="st6" d="M89.8,46.8c-1.7-5-5.5-9-10.3-11l-0.1,0c-7.6-3.2-16.6-0.9-21.5,5.7c-3.7,5-4.8,11.6-2.7,17.5
			c1.2,3.2,3.2,6,6,8.1c2.5,1.9,5.5,2.7,8.1,4.4c3.5,2.2,4.8,5.8,2.7,9.5c-0.1,0.2,0.1,0.3,0.3,0.2c1.9-1.2,3.7-2.6,5.4-4.2
			c4.1-3.6,7.5-7.9,10-12.8c0.9-1.7,1.6-3.6,2.2-5.5C90.8,54.8,91.1,50.7,89.8,46.8z M74.4,62.4v1.5c0,0.9-0.7,1.6-1.6,1.6
			c-0.9,0-1.6-0.7-1.6-1.6v-1.3c-2-0.2-3.6-1.1-4.7-2.5c-0.5-0.6-0.4-1.5,0.3-2l1-0.7c0.5-0.4,1.3-0.3,1.7,0.2
			c0.8,0.8,1.8,1.1,3,1.1c1.8,0,3-0.8,3-1.8c0-1.4-2.3-2.5-4.3-3.5c-2.2-1.1-4.6-2.3-4.6-5.4c0-2.7,1.9-4.7,4.5-5.3v-1.5
			c0-0.9,0.7-1.6,1.6-1.6c0.9,0,1.6,0.7,1.6,1.6v1.4c1.5,0.2,2.8,0.9,3.6,2.1c0.5,0.6,0.3,1.5-0.3,1.9l-0.8,0.6
			c-0.5,0.4-1.2,0.3-1.7-0.1c-0.6-0.5-1.4-0.8-2.1-0.8c-1.4,0-2.5,0.8-2.5,1.8c0,1.1,1.5,1.5,3.7,2.6c3.2,1.5,5.2,3.1,5.2,6.1
			C79.4,59.8,77.4,61.8,74.4,62.4z"/>
	</g>
</g>
</svg>
