<svg xmlns="http://www.w3.org/2000/svg" xmlns:xlink="http://www.w3.org/1999/xlink" width="128" height="128" viewBox="0 0 128 128">
  <defs>
    <linearGradient id="compare-b" x1="2.679%" x2="102%" y1="2.652%" y2="101%">
      <stop offset="0%" stop-color="#1373D8"/>
      <stop offset="100%" stop-color="#1347B5"/>
    </linearGradient>
    <rect id="compare-a" width="128" height="128" x="0" y="0"/>
    <linearGradient id="compare-c" x1="1.467%" x2="106.784%" y1="49.874%" y2="40.395%">
      <stop offset="0%" stop-opacity=".177"/>
      <stop offset="100%" stop-color="#196AC6" stop-opacity=".516"/>
    </linearGradient>
    <rect id="compare-e" width="90" height="90" x="19" y="19" rx="45"/>
    <linearGradient id="compare-g" x1="43.899%" x2="79.17%" y1="29.545%" y2="85.544%">
      <stop offset="0%" stop-color="#2280E5"/>
      <stop offset="100%" stop-color="#0E4C8F"/>
    </linearGradient>
  </defs>
  <g fill="none" fill-rule="evenodd">
    <mask id="compare-d" fill="#fff">
      <use xlink:href="#compare-a"/>
    </mask>
    <use fill="url(#compare-b)" xlink:href="#compare-a"/>
    <rect width="90" height="90" x="47.321" y="52.745" fill="url(#compare-c)" mask="url(#compare-d)" transform="rotate(50 92.32 97.745)"/>
    <mask id="compare-f" fill="#fff">
      <use xlink:href="#compare-e"/>
    </mask>
    <use fill="#FFF" xlink:href="#compare-e"/>
    <g mask="url(#compare-f)">
      <path fill="url(#compare-g)" fill-rule="nonzero" d="M18.9542411,12.066875 C17.8158482,13.7152083 16.516183,16.1608333 15.0552455,19.40375 C14.6378348,18.5975 14.2868304,17.9480208 14.0022321,17.4553125 C13.7176339,16.9626042 13.3334263,16.39375 12.8496094,15.74875 C12.3657924,15.10375 11.8819754,14.5976042 11.3981585,14.2303125 C10.9143415,13.8630208 10.3166853,13.5494792 9.60518973,13.2896875 C8.8936942,13.0298958 8.12053571,12.9 7.28571429,12.9 L0.910714286,12.9 C0.645089286,12.9 0.426897321,12.819375 0.256138393,12.658125 C0.0853794643,12.496875 0,12.2908333 0,12.04 L0,6.88 C0,6.62916667 0.0853794643,6.423125 0.256138393,6.261875 C0.426897321,6.100625 0.645089286,6.02 0.910714286,6.02 L7.28571429,6.02 C12.0290179,6.02 15.9185268,8.035625 18.9542411,12.066875 Z M51,33.54 C51,33.7908333 50.9146205,33.996875 50.7438616,34.158125 L41.6367188,42.758125 C41.4659598,42.919375 41.2477679,43 40.9821429,43 C40.7354911,43 40.5220424,42.9148958 40.3417969,42.7446875 C40.1615513,42.5744792 40.0714286,42.3729167 40.0714286,42.14 L40.0714286,36.98 C39.4642857,36.98 38.6579241,36.9844792 37.6523438,36.9934375 C36.6467634,37.0023958 35.8783482,37.0113542 35.3470982,37.0203125 C34.8158482,37.0292708 34.1233259,37.0203125 33.2695313,36.9934375 C32.4157366,36.9665625 31.7421875,36.9217708 31.2488839,36.8590625 C30.7555804,36.7963542 30.1484375,36.7022917 29.4274554,36.576875 C28.7064732,36.4514583 28.108817,36.2857292 27.6344866,36.0796875 C27.1601563,35.8736458 26.609933,35.6183333 25.983817,35.31375 C25.3577009,35.0091667 24.7979911,34.6508333 24.3046875,34.23875 C23.8113839,33.8266667 23.2896205,33.3473958 22.7393973,32.8009375 C22.1891741,32.2544792 21.6579241,31.631875 21.1456473,30.933125 C22.265067,29.266875 23.5552455,26.82125 25.016183,23.59625 C25.4335938,24.4025 25.7845982,25.0519792 26.0691964,25.5446875 C26.3537946,26.0373958 26.7380022,26.60625 27.2218192,27.25125 C27.7056362,27.89625 28.1894531,28.4023958 28.6732701,28.7696875 C29.1570871,29.1369792 29.7547433,29.4505208 30.4662388,29.7103125 C31.1777344,29.9701042 31.9508929,30.1 32.7857143,30.1 L40.0714286,30.1 L40.0714286,24.94 C40.0714286,24.6891667 40.156808,24.483125 40.327567,24.321875 C40.4983259,24.160625 40.7165179,24.08 40.9821429,24.08 C41.2098214,24.08 41.4375,24.1695833 41.6651786,24.34875 L50.7438616,32.921875 C50.9146205,33.083125 51,33.2891667 51,33.54 Z M51,9.46 C51,9.71083333 50.9146205,9.916875 50.7438616,10.078125 L41.6367187,18.678125 C41.4659598,18.839375 41.2477679,18.92 40.9821429,18.92 C40.7354911,18.92 40.5220424,18.8348958 40.3417969,18.6646875 C40.1615513,18.4944792 40.0714286,18.2929167 40.0714286,18.06 L40.0714286,12.9 L32.7857143,12.9 C31.875,12.9 31.0496652,13.034375 30.3097098,13.303125 C29.5697545,13.571875 28.9151786,13.975 28.3459821,14.5125 C27.7767857,15.05 27.2929687,15.6009375 26.8945312,16.1653125 C26.4960937,16.7296875 26.0691964,17.4239583 25.6138393,18.248125 C25.0066964,19.3589583 24.2667411,20.8908333 23.3939732,22.84375 C22.84375,24.02625 22.3741629,25.020625 21.9852121,25.826875 C21.5962612,26.633125 21.0839844,27.57375 20.4483817,28.64875 C19.812779,29.72375 19.2056362,30.6195833 18.6269531,31.33625 C18.0482701,32.0529167 17.3462612,32.7964583 16.5209263,33.566875 C15.6955915,34.3372917 14.8417969,34.9509375 13.9595424,35.4078125 C13.0772879,35.8646875 12.0669643,36.2409375 10.9285714,36.5365625 C9.79017857,36.8321875 8.57589286,36.98 7.28571429,36.98 L0.910714286,36.98 C0.645089286,36.98 0.426897321,36.899375 0.256138393,36.738125 C0.0853794643,36.576875 0,36.3708333 0,36.12 L0,30.96 C0,30.7091667 0.0853794643,30.503125 0.256138393,30.341875 C0.426897321,30.180625 0.645089286,30.1 0.910714286,30.1 L7.28571429,30.1 C8.19642857,30.1 9.02176339,29.965625 9.76171875,29.696875 C10.5016741,29.428125 11.15625,29.025 11.7254464,28.4875 C12.2946429,27.95 12.7784598,27.3990625 13.1768973,26.8346875 C13.5753348,26.2703125 14.0022321,25.5760417 14.4575893,24.751875 C15.0647321,23.6410417 15.8046875,22.1091667 16.6774554,20.15625 C17.2276786,18.97375 17.6972656,17.979375 18.0862165,17.173125 C18.4751674,16.366875 18.9874442,15.42625 19.6230469,14.35125 C20.2586496,13.27625 20.8657924,12.3804167 21.4444754,11.66375 C22.0231585,10.9470833 22.7251674,10.2035417 23.5505022,9.433125 C24.3758371,8.66270833 25.2296317,8.0490625 26.1118862,7.5921875 C26.9941406,7.1353125 28.0044643,6.7590625 29.1428571,6.4634375 C30.28125,6.1678125 31.4955357,6.02 32.7857143,6.02 L40.0714286,6.02 L40.0714286,0.86 C40.0714286,0.609166667 40.156808,0.403125 40.327567,0.241875 C40.4983259,0.080625 40.7165179,0 40.9821429,0 C41.2098214,0 41.4375,0.0895833333 41.6651786,0.26875 L50.7438616,8.841875 C50.9146205,9.003125 51,9.20916667 51,9.46 Z" transform="translate(39 43)"/>
    </g>
  </g>
</svg>
