<svg xmlns="http://www.w3.org/2000/svg" xmlns:xlink="http://www.w3.org/1999/xlink" width="128" height="128" viewBox="0 0 128 128">
  <defs>
    <linearGradient id="flip-b" x1=".568%" x2="101.782%" y1=".562%" y2="100.784%">
      <stop offset="0%" stop-color="#59A30E"/>
      <stop offset="100%" stop-color="#60A917"/>
    </linearGradient>
    <rect id="flip-a" width="128" height="128" x="0" y="0"/>
    <linearGradient id="flip-c" x1="1.467%" x2="106.784%" y1="49.874%" y2="40.395%">
      <stop offset="0%" stop-opacity=".177"/>
      <stop offset="100%" stop-color="#1FF4F7" stop-opacity=".133"/>
    </linearGradient>
    <rect id="flip-e" width="90" height="90" x="19" y="19" rx="45"/>
    <linearGradient id="flip-g" x1="50%" x2="50%" y1="1.372%" y2="100%">
      <stop offset="0%" stop-color="#88C024"/>
      <stop offset="100%" stop-color="#2E8909"/>
    </linearGradient>
  </defs>
  <g fill="none" fill-rule="evenodd">
    <mask id="flip-d" fill="#fff">
      <use xlink:href="#flip-a"/>
    </mask>
    <use fill="url(#flip-b)" xlink:href="#flip-a"/>
    <rect width="90" height="90" x="47.321" y="52.745" fill="url(#flip-c)" mask="url(#flip-d)" transform="rotate(50 92.32 97.745)"/>
    <mask id="flip-f" fill="#fff">
      <use xlink:href="#flip-e"/>
    </mask>
    <use fill="#FFF" xlink:href="#flip-e"/>
    <g mask="url(#flip-f)">
      <g transform="rotate(90 26 64)">
        <polygon points="0 0 53 0 53 53 0 53"/>
        <path fill="url(#flip-g)" fill-rule="nonzero" d="M33.1666667,46.0454545 L37.6111111,46.0454545 L37.6111111,41.5909091 L33.1666667,41.5909091 L33.1666667,46.0454545 Z M42.0555556,19.3181818 L46.5,19.3181818 L46.5,14.8636364 L42.0555556,14.8636364 L42.0555556,19.3181818 Z M6.5,10.4090909 L6.5,41.5909091 C6.5,44.0520455 8.48888889,46.0454545 10.9444444,46.0454545 L19.8333333,46.0454545 L19.8333333,41.5909091 L10.9444444,41.5909091 L10.9444444,10.4090909 L19.8333333,10.4090909 L19.8333333,5.95454545 L10.9444444,5.95454545 C8.48888889,5.95454545 6.5,7.94795455 6.5,10.4090909 Z M42.0555556,5.95454545 L42.0555556,10.4090909 L46.5,10.4090909 C46.5,7.94795455 44.5111111,5.95454545 42.0555556,5.95454545 Z M24.2777778,50.5 L28.7222222,50.5 L28.7222222,1.5 L24.2777778,1.5 L24.2777778,50.5 Z M42.0555556,37.1363636 L46.5,37.1363636 L46.5,32.6818182 L42.0555556,32.6818182 L42.0555556,37.1363636 Z M33.1666667,10.4090909 L37.6111111,10.4090909 L37.6111111,5.95454545 L33.1666667,5.95454545 L33.1666667,10.4090909 Z M42.0555556,28.2272727 L46.5,28.2272727 L46.5,23.7727273 L42.0555556,23.7727273 L42.0555556,28.2272727 Z M42.0555556,46.0454545 C44.5111111,46.0454545 46.5,44.0520455 46.5,41.5909091 L42.0555556,41.5909091 L42.0555556,46.0454545 Z"/>
      </g>
    </g>
  </g>
</svg>
