<?xml version="1.0" encoding="utf-8"?>
<!-- Generator: Adobe Illustrator 25.3.0, SVG Export Plug-In . SVG Version: 6.00 Build 0)  -->
<svg version="1.1" id="Layer_1" xmlns="http://www.w3.org/2000/svg" xmlns:xlink="http://www.w3.org/1999/xlink" x="0px" y="0px"
	 viewBox="0 0 128 128" style="enable-background:new 0 0 128 128;" xml:space="preserve">
<style type="text/css">
	.st0{fill-rule:evenodd;clip-rule:evenodd;fill:url(#SVGID_1_);}
	.st1{fill-rule:evenodd;clip-rule:evenodd;fill:url(#SVGID_2_);}
	.st2{fill-rule:evenodd;clip-rule:evenodd;fill:#FFFFFF;}
	.st3{fill:url(#SVGID_3_);}
	.st4{opacity:0.3;fill:url(#SVGID_4_);}
</style>
<g>
	<g>
		<linearGradient id="SVGID_1_" gradientUnits="userSpaceOnUse" x1="1.7412" y1="2.194" x2="123.6729" y2="123.2389">
			<stop  offset="4.210532e-03" style="stop-color:#FF8F9E"/>
			<stop  offset="1" style="stop-color:#FE579F"/>
		</linearGradient>
		<rect class="st0" width="128" height="128"/>
	</g>
	<linearGradient id="SVGID_2_" gradientUnits="userSpaceOnUse" x1="125.4747" y1="130.0535" x2="59.6316" y2="57.5595">
		<stop  offset="0" style="stop-color:#000000;stop-opacity:0"/>
		<stop  offset="0.9224" style="stop-color:#000000;stop-opacity:0.1845"/>
		<stop  offset="1" style="stop-color:#000000;stop-opacity:0.2"/>
	</linearGradient>
	<polygon class="st1" points="128,64.4 128,128 64.4,128 32.2,95.8 95.8,32.2 	"/>
	<g>
		<path class="st2" d="M109,64c0,1.8-0.1,3.5-0.3,5.2c-0.1,0.6-0.1,1.1-0.2,1.7c-0.1,0.5-0.2,1.1-0.3,1.6c-1.7,9-6.2,17.1-12.4,23.3
			c-1.5,1.5-3.2,2.9-4.9,4.2c-0.4,0.3-0.9,0.6-1.3,0.9c-4.9,3.4-10.4,5.8-16.4,7.1c-0.3,0-0.5,0.1-0.8,0.2c-1.1,0.2-2.2,0.4-3.3,0.5
			c-0.9,0.1-1.7,0.2-2.6,0.2c-0.9,0-1.7,0.1-2.6,0.1c-12.4,0-23.7-5-31.8-13.2C24,87.7,19,76.4,19,64c0-12.4,5-23.7,13.2-31.8
			S51.6,19,64,19c24.6,0,44.6,19.8,45,44.3C109,63.5,109,63.8,109,64z"/>
	</g>
	<linearGradient id="SVGID_3_" gradientUnits="userSpaceOnUse" x1="43.936" y1="44.1926" x2="84.1735" y2="83.9313">
		<stop  offset="4.210532e-03" style="stop-color:#FF8F9E"/>
		<stop  offset="1" style="stop-color:#FE579F"/>
	</linearGradient>
	<path class="st3" d="M89.4,52.4C85,42.8,75.3,36.1,64,36.1c-15.4,0-27.9,12.5-27.9,27.9c0,4.2,0.9,8.1,2.5,11.6
		C43,85.3,52.7,91.9,64,91.9c15.4,0,27.9-12.5,27.9-27.9C91.9,59.9,91,55.9,89.4,52.4z M54.9,57.3c0-4,2.8-6.9,6.7-7.8v-2.2
		c0-1.3,1.1-2.4,2.4-2.4c1.3,0,2.4,1.1,2.4,2.4v2c2.2,0.4,4.1,1.4,5.3,3.1c0.7,0.9,0.5,2.2-0.4,2.9l-1.2,0.8
		c-0.8,0.6-1.8,0.5-2.5-0.2c-0.9-0.8-2-1.1-3.1-1.1c-2.1,0-3.7,1.2-3.7,2.7c0,1.7,2.2,2.3,5.4,3.8c0.4,0.2,0.8,0.4,1.1,0.5
		c0.2,0.1,0.4,0.2,0.7,0.3c3.7,2,5.9,4.3,5.9,8.1c0,4.3-2.9,7.3-7.4,8.2v2.2c0,1.3-1.1,2.4-2.4,2.4c-1.3,0-2.4-1.1-2.4-2.4v-2
		c-3-0.4-5.3-1.6-7-3.6c-0.7-0.9-0.5-2.2,0.4-2.9l1.5-1c0.3-0.2,0.7-0.4,1.1-0.4c0.5,0,1,0.2,1.4,0.6c1.2,1.1,2.6,1.6,4.5,1.6
		c2.7,0,4.5-1.1,4.5-2.6c0-2-3.2-3.6-6.1-5.1c-0.1,0-0.2-0.1-0.3-0.1c0,0-0.1,0-0.2-0.1C58.3,63.6,54.9,61.8,54.9,57.3z M64,90.6
		c-9.9,0-19.1-5.6-23.6-14.4l21.1-9.7c1.9,1,5.3,2.6,5.3,3.8c0,0.6-1.3,1.3-3.2,1.3c-1.5,0-2.7-0.4-3.6-1.3c-0.6-0.6-1.5-1-2.4-1
		c-0.7,0-1.3,0.2-1.8,0.6l-1.5,1c-0.8,0.5-1.3,1.4-1.4,2.3c-0.1,0.9,0.1,1.8,0.7,2.5c1.7,2,3.9,3.3,6.7,3.9v0.9
		c0,2.1,1.7,3.7,3.7,3.7c2,0,3.7-1.7,3.7-3.7v-1.1c4.6-1.3,7.4-4.8,7.4-9.2c0-3.9-2.1-6.3-4.4-7.9l18.1-8.3c1.3,3.1,1.9,6.5,1.9,9.9
		C90.6,78.7,78.7,90.6,64,90.6z"/>
	<linearGradient id="SVGID_4_" gradientUnits="userSpaceOnUse" x1="96.2117" y1="93.5086" x2="59.1888" y2="61.5847">
		<stop  offset="4.210532e-03" style="stop-color:#FF8F9E;stop-opacity:0"/>
		<stop  offset="1" style="stop-color:#FE579F"/>
	</linearGradient>
	<path class="st4" d="M108.7,69.2c-0.1,0.6-0.1,1.1-0.2,1.7c-0.1,0.5-0.2,1.1-0.3,1.6c-1.7,9-6.2,17.1-12.4,23.3
		c-1.5,1.5-3.2,2.9-4.9,4.2c-0.4,0.3-0.9,0.6-1.3,0.9c-4.9,3.4-10.4,5.8-16.4,7.1c-0.3,0-0.5,0.1-0.8,0.2c-1.1,0.2-2.2,0.4-3.3,0.5
		L44.2,83.8l0,0c5,5.1,12,8.2,19.7,8.2c15.4,0,27.9-12.5,27.9-27.9c0-4.2-0.9-8.1-2.5-11.6c-1.4-3-3.3-5.7-5.6-8.1L108.7,69.2z"/>
</g>
</svg>
