<?xml version="1.0" encoding="utf-8"?>
<!-- Generator: Adobe Illustrator 25.3.0, SVG Export Plug-In . SVG Version: 6.00 Build 0)  -->
<svg version="1.1" id="Layer_1" xmlns="http://www.w3.org/2000/svg" xmlns:xlink="http://www.w3.org/1999/xlink" x="0px" y="0px"
	 viewBox="0 0 128 128" style="enable-background:new 0 0 128 128;" xml:space="preserve">
<style type="text/css">
	.st0{fill-rule:evenodd;clip-rule:evenodd;fill:url(#SVGID_1_);}
	.st1{fill-rule:evenodd;clip-rule:evenodd;fill:url(#SVGID_2_);}
	.st2{fill-rule:evenodd;clip-rule:evenodd;fill:#FFFFFF;}
	.st3{opacity:0.13;fill-rule:evenodd;clip-rule:evenodd;fill:url(#SVGID_3_);}
	.st4{fill:none;}
	.st5{fill-rule:evenodd;clip-rule:evenodd;fill:url(#SVGID_4_);}
	.st6{fill-rule:evenodd;clip-rule:evenodd;fill:none;stroke:#FFFFFF;stroke-width:2.2;stroke-linecap:round;stroke-miterlimit:10;}
	.st7{opacity:0.19;fill-rule:evenodd;clip-rule:evenodd;fill:#FFFFFF;}
</style>
<g>
	<g>
		<linearGradient id="SVGID_1_" gradientUnits="userSpaceOnUse" x1="2.6147" y1="1.5126" x2="126.0982" y2="127.2131">
			<stop  offset="0" style="stop-color:#74FF6D"/>
			<stop  offset="1" style="stop-color:#00D999"/>
		</linearGradient>
		<rect class="st0" width="128" height="128"/>
	</g>
	<linearGradient id="SVGID_2_" gradientUnits="userSpaceOnUse" x1="125.4747" y1="130.0535" x2="59.6316" y2="57.5595">
		<stop  offset="0" style="stop-color:#000000;stop-opacity:0"/>
		<stop  offset="0.9224" style="stop-color:#000000;stop-opacity:0.1845"/>
		<stop  offset="1" style="stop-color:#000000;stop-opacity:0.2"/>
	</linearGradient>
	<polygon class="st1" points="128,64.4 128,128 64.4,128 32.2,95.8 95.8,32.2 	"/>
	<g>
		<path class="st2" d="M109,64c0,2.3-0.2,4.6-0.5,6.9c-0.1,0.5-0.2,1.1-0.3,1.6c-1.7,9-6.1,17.1-12.4,23.3
			c-6.1,6.1-13.8,10.4-22.6,12.2c-0.3,0-0.5,0.1-0.8,0.2c-2.7,0.5-5.6,0.8-8.5,0.8c-12.4,0-23.7-5-31.8-13.2C24,87.7,19,76.4,19,64
			s5-23.7,13.2-31.8C40.3,24,51.6,19,64,19C88.9,19,109,39.2,109,64z"/>
	</g>
	<linearGradient id="SVGID_3_" gradientUnits="userSpaceOnUse" x1="94.5838" y1="97.1598" x2="67.7972" y2="63.6766">
		<stop  offset="0" style="stop-color:#74FF6D"/>
		<stop  offset="1" style="stop-color:#00D999"/>
	</linearGradient>
	<path class="st3" d="M108.5,70.9c-0.1,0.5-0.2,1.1-0.3,1.6c-1.7,9-6.1,17.1-12.4,23.3c-6.1,6.1-13.8,10.4-22.6,12.2
		c-0.3,0-0.5,0.1-0.8,0.2l-20-20.1l0.4-2.5l-8.2-8.2l4.7-4.2l21.8,4.1l12.1-11.7l-5.5-11.1l9.5-4.9L108.5,70.9z"/>
	<line class="st4" x1="95.8" y1="32.2" x2="32.2" y2="95.8"/>
	<linearGradient id="SVGID_4_" gradientUnits="userSpaceOnUse" x1="34.4162" y1="35.9714" x2="83.6323" y2="81.6404">
		<stop  offset="0" style="stop-color:#74FF6D"/>
		<stop  offset="1" style="stop-color:#00D999"/>
	</linearGradient>
	<path class="st5" d="M75.6,85.6c0,2.1-1.7,3.9-3.9,3.9c-2.1,0-3.9-1.7-3.9-3.9s1.7-3.9,3.9-3.9C73.8,81.7,75.6,83.4,75.6,85.6z
		 M55.4,81.7c-2.1,0-3.9,1.7-3.9,3.9s1.7,3.9,3.9,3.9c2.1,0,3.8-1.7,3.8-3.9S57.5,81.7,55.4,81.7z M89,54.5l-0.1,0.4l-3.8,19.9
		c-0.5,2.4-2.6,4.2-5,4.2H48.3c-2.5,0-4.6-1.7-5-4.2L39.4,55l-1.3-6.6l-0.9-4.7c-0.3-1.4-1.5-2.4-2.9-2.4h-1.1c-1,0-1.8-0.8-1.8-1.8
		c0-1,0.8-1.8,1.8-1.8h2.2c2.5,0,4.7,1.8,5.2,4.2l0.8,4c0.3,1.4,1.5,2.3,2.9,2.3h39.6C87.2,48.4,89.6,51.3,89,54.5z M75.6,63.6
		c0-0.6,0-1.1-0.1-1.7c-0.8-5.5-5.5-9.7-11.3-9.7c-0.6,0-1.1,0.5-1.1,1.1c0,0.6,0.5,1.1,1.1,1.1c4.7,0,8.6,3.5,9.1,8.1
		c0.1,0.4,0.1,0.7,0.1,1.1c0,5.1-4.1,9.2-9.2,9.2S55,68.7,55,63.6c0-0.4,0-0.7,0.1-1c0.2-1.4,0.6-2.7,1.4-3.8l1.9,1.2
		c0.4,0.3,1-0.1,0.9-0.6l-0.6-5.2c0-0.4-0.4-0.6-0.8-0.5l-5,1.5c-0.5,0.1-0.6,0.8-0.2,1.1l1.9,1.3c-0.9,1.4-1.4,2.9-1.7,4.5
		c-0.1,0.5-0.1,1.1-0.1,1.6c0,6.3,5.1,11.4,11.4,11.4C70.5,75,75.6,69.9,75.6,63.6z"/>
	<polyline class="st6" points="64,57.9 64,63.6 67.8,66.3 	"/>
	<path class="st7" d="M89,54.5l-0.1,0.4c-3.9,3.2-8.5,5.6-13.5,7.1c-0.7,0.2-1.4,0.4-2.1,0.6c-1,0.2-2.1,0.4-3.1,0.6
		c-2,0.3-4,0.5-6.1,0.5c-0.3,0-0.7,0-1,0c-2.8-0.1-5.5-0.4-8.1-1c-0.7-0.2-1.4-0.4-2.1-0.6c-5-1.5-9.5-3.9-13.5-7l-1.3-6.6l-0.9-4.7
		c-0.3-1.4-1.5-2.4-2.9-2.4h-1.1c-1,0-1.8-0.8-1.8-1.8c0-1,0.8-1.8,1.8-1.8h2.2c2.5,0,4.7,1.8,5.2,4.2l0.8,4
		c0.3,1.4,1.5,2.3,2.9,2.3h39.6C87.2,48.4,89.6,51.3,89,54.5z"/>
</g>
</svg>
