<svg xmlns="http://www.w3.org/2000/svg" xmlns:xlink="http://www.w3.org/1999/xlink" width="128" height="128" viewBox="0 0 128 128">
  <defs>
    <linearGradient id="save-b" x1="0%" x2="102%" y1="0%" y2="101%">
      <stop offset="0%" stop-color="#603BE6"/>
      <stop offset="100%" stop-color="#D356E8"/>
    </linearGradient>
    <rect id="save-a" width="128" height="128" x="0" y="0"/>
    <linearGradient id="save-c" x1="1.467%" x2="106.784%" y1="49.874%" y2="40.395%">
      <stop offset="0%" stop-opacity=".177"/>
      <stop offset="100%" stop-color="#F71F1F" stop-opacity=".133"/>
    </linearGradient>
    <rect id="save-e" width="90" height="90" x="19" y="19" rx="45"/>
    <linearGradient id="save-g" x1="5.709%" x2="96.062%" y1="0%" y2="101%">
      <stop offset="0%" stop-color="#3023AE"/>
      <stop offset="100%" stop-color="#C86DD7"/>
    </linearGradient>
  </defs>
  <g fill="none" fill-rule="evenodd">
    <mask id="save-d" fill="#fff">
      <use xlink:href="#save-a"/>
    </mask>
    <use fill="url(#save-b)" xlink:href="#save-a"/>
    <rect width="90" height="90" x="47.321" y="52.745" fill="url(#save-c)" mask="url(#save-d)" transform="rotate(50 92.32 97.745)"/>
    <mask id="save-f" fill="#fff">
      <use xlink:href="#save-e"/>
    </mask>
    <use fill="#FFF" xlink:href="#save-e"/>
    <g mask="url(#save-f)">
      <g transform="translate(40 39)">
        <path fill="url(#save-g)" fill-rule="nonzero" d="M27.7561412,27.9817059 L44.0578612,27.9817059 C46.2267109,27.9817059 48,29.7327414 48,31.8693451 L48,47.1115307 C48,49.2506246 46.2237652,51 44.0578612,51 L27.7561412,51 C25.5872916,51 23.8135816,49.2506246 23.8135816,47.1115307 L23.8135816,31.8693451 C23.8135816,29.7327414 25.5872916,27.9817059 27.7561412,27.9817059 L27.7561412,27.9817059 L27.7561412,27.9817059 Z M8.61143548,28.0472815 C7.98232602,28.0472815 7.45841881,27.4861533 7.45841881,26.8071549 C7.45841881,26.1132152 7.9671769,25.5666132 8.61143548,25.5666132 L18.4650992,25.5666132 C19.0942086,25.5666132 19.6185366,26.1281565 19.6185366,26.8071549 C19.6185366,27.5010946 19.1093577,28.0472815 18.4650992,28.0472815 L8.61143548,28.0472815 L8.61143548,28.0472815 L8.61143548,28.0472815 Z M36.9449266,7.54783897 L41.0781127,7.54783897 C41.8873284,7.54783897 42.6363684,7.87281191 43.1598548,8.40405758 C43.6984903,8.9357183 44.0284046,9.65954053 44.0284046,10.4572391 L44.0284046,24.2293683 L41.4820893,24.2293683 L41.4820893,10.4572391 C41.4820893,10.3389539 41.4370628,10.2360251 41.3621588,10.1621487 C41.2876756,10.0882724 41.1828941,10.0438636 41.0629635,10.0438636 L36.9301983,10.0438636 L36.9301983,24.2297833 L34.3994529,24.2297833 L34.3994529,2.90981519 C34.3994529,2.79153002 34.3544264,2.68818613 34.2795224,2.61472482 C34.2046184,2.54084846 34.0994161,2.49643964 33.9799064,2.49643964 L2.93556362,2.49643964 C2.81563305,2.49643964 2.7104308,2.54043343 2.63594761,2.61472482 C2.5606228,2.68860117 2.51601704,2.79153002 2.51601704,2.90981519 L2.51601704,37.5022095 C2.51601704,37.6204946 2.56104361,37.7234235 2.63594761,37.7972998 C2.71085161,37.8711762 2.81563305,37.915585 2.93514281,37.915585 L19.2924097,37.915585 L19.2924097,40.4116096 L9.59949503,40.4116096 L9.59949503,45.0492183 C9.59949503,45.1675035 9.64452159,45.2712624 9.7194256,45.3451388 C9.79390879,45.4181851 9.89911104,45.463424 10.0186208,45.463424 L19.2924097,45.4625939 L19.2924097,47.9586185 L10.0337699,47.9586185 C9.22497501,47.9586185 8.47635579,47.6336456 7.95244858,47.1019848 C7.41297144,46.5711542 7.0838988,45.847332 7.0838988,45.0488033 L7.0838988,40.4120246 L2.95029194,40.4120246 C2.14149703,40.4120246 1.39287781,40.0862216 0.868970596,39.555391 C0.329493451,39.0229002 0,38.299078 0,37.5013794 L0,2.90981519 C0,2.1121166 0.329493451,1.37376812 0.868549787,0.856633654 C1.40760612,0.324972941 2.14149703,0 2.95029194,0 L33.9950555,0 C34.8034296,0 35.5524696,0.324972941 36.0767976,0.856218618 C36.6154332,1.38829437 36.9449266,2.11170156 36.9449266,2.90940015 L36.9449266,7.54783897 L36.9449266,7.54783897 L36.9449266,7.54783897 L36.9449266,7.54783897 Z M8.59628636,11.8895273 C7.9671769,11.8895273 7.44326969,11.327984 7.44326969,10.6485706 C7.44326969,9.9546309 7.95244858,9.40802891 8.59628636,9.40802891 L28.3040345,9.40802891 C28.933144,9.40802891 29.4566304,9.96957219 29.4566304,10.6485706 C29.4566304,11.3425102 28.9482931,11.8895273 28.3040345,11.8895273 L8.59628636,11.8895273 L8.59628636,11.8895273 L8.59628636,11.8895273 Z M8.59628636,19.9690269 C7.9671769,19.9690269 7.44326969,19.4074837 7.44326969,18.7284853 C7.44326969,18.0345456 7.95244858,17.4879436 8.59628636,17.4879436 L28.3040345,17.4879436 C28.933144,17.4879436 29.4566304,18.0490719 29.4566304,18.7284853 C29.4566304,19.4224249 28.9482931,19.9690269 28.3040345,19.9690269 L8.59628636,19.9690269 L8.59628636,19.9690269 L8.59628636,19.9690269 Z"/>
        <path fill="#FFF" fill-rule="nonzero" d="M30.5649265,41.0646155 C29.7006426,41.0646155 29,40.3641121 29,39.4995695 C29,38.6358879 29.7006426,37.9353845 30.5649265,37.9353845 L33.9337816,37.9353845 L33.9337816,34.5641849 C33.9337816,33.7005034 34.6348549,33 35.4987081,33 C36.3625613,33 37.0636346,33.7005034 37.0636346,34.5641849 L37.0636346,37.9353845 L40.4350735,37.9353845 C41.2993574,37.9353845 42,38.6358879 42,39.4995695 C42,40.3641121 41.2993574,41.0646155 40.4350735,41.0646155 L37.0662184,41.0646155 L37.0662184,44.4358151 C37.0662184,45.2994966 36.3655757,46 35.5012919,46 C34.6374387,46 33.9363654,45.2994966 33.9363654,44.4358151 L33.9363654,41.0646155 L30.5649265,41.0646155 L30.5649265,41.0646155 L30.5649265,41.0646155 Z"/>
      </g>
    </g>
  </g>
</svg>
