<?xml version="1.0" encoding="utf-8"?>
<!-- Generator: Adobe Illustrator 26.0.0, SVG Export Plug-In . SVG Version: 6.00 Build 0)  -->
<svg version="1.1" id="Layer_1" xmlns="http://www.w3.org/2000/svg" xmlns:xlink="http://www.w3.org/1999/xlink" x="0px" y="0px"
	 viewBox="0 0 128 128" style="enable-background:new 0 0 128 128;" xml:space="preserve">
<style type="text/css">
	.st0{fill-rule:evenodd;clip-rule:evenodd;fill:url(#SVGID_1_);}
	.st1{fill-rule:evenodd;clip-rule:evenodd;fill:url(#SVGID_00000078017367748688677960000014565462594581530801_);}
	.st2{fill-rule:evenodd;clip-rule:evenodd;fill:#FFFFFF;}
	.st3{fill:none;}
	.st4{fill:url(#SVGID_00000170264035190333688040000006039823202218651264_);}
	.st5{fill-rule:evenodd;clip-rule:evenodd;fill:url(#SVGID_00000092437378406229948490000016001378049740051632_);}
	.st6{fill-rule:evenodd;clip-rule:evenodd;fill:url(#SVGID_00000099636532694544484540000000031661176752057013_);}
	.st7{opacity:0.1;}
	.st8{fill:none;stroke:#000000;stroke-width:2;stroke-linecap:round;stroke-miterlimit:10;}
	.st9{fill:url(#SVGID_00000023271398839923398230000010474563906992206499_);}
	.st10{fill:url(#SVGID_00000012472655270728877690000009095952653081704888_);}
	.st11{fill:url(#SVGID_00000181048115952200539970000014819362664548243840_);}
	.st12{fill-rule:evenodd;clip-rule:evenodd;fill:url(#SVGID_00000098217324168950150350000008795712184724650112_);}
	.st13{fill:url(#SVGID_00000147202189251821535320000002147207318302101914_);}
	.st14{fill:#FFFFFF;}
</style>
<g>
	
		<linearGradient id="SVGID_1_" gradientUnits="userSpaceOnUse" x1="0.6115" y1="131.3254" x2="127.6703" y2="0.3842" gradientTransform="matrix(1 0 0 -1 0 130)">
		<stop  offset="0" style="stop-color:#F15895"/>
		<stop  offset="1" style="stop-color:#9645A1"/>
	</linearGradient>
	<rect class="st0" width="128" height="128"/>
</g>
<linearGradient id="SVGID_00000158719948285724166050000002245389771508792747_" gradientUnits="userSpaceOnUse" x1="125.4724" y1="1062.1732" x2="59.6293" y2="989.6792" gradientTransform="matrix(1 0 0 1 0 -932.1176)">
	<stop  offset="0" style="stop-color:#000000;stop-opacity:0"/>
	<stop  offset="1" style="stop-color:#000000;stop-opacity:0.2"/>
</linearGradient>
<polygon style="fill-rule:evenodd;clip-rule:evenodd;fill:url(#SVGID_00000158719948285724166050000002245389771508792747_);" points="
	128,64.4 128,128 64.4,128 32.2,95.8 95.8,32.2 "/>
<g>
	<path class="st2" d="M109,64c0,2.3-0.2,4.6-0.5,6.9c-0.1,0.5-0.2,1.1-0.3,1.6c-0.2,1.2-0.5,2.3-0.8,3.4
		c-2.1,7.6-6.1,14.4-11.6,19.8c-6.1,6.1-13.8,10.4-22.6,12.2c-0.3,0-0.5,0.1-0.8,0.2c-2.7,0.5-5.6,0.8-8.5,0.8
		c-2.4,0-4.8-0.2-7.1-0.6c-9.6-1.5-18.2-6-24.7-12.6C24,87.7,19,76.4,19,64s5-23.7,13.2-31.8C40.3,24,51.6,19,64,19
		C88.9,19,109,39.2,109,64z"/>
</g>
<line class="st3" x1="95.8" y1="32.2" x2="32.2" y2="95.8"/>
<linearGradient id="SVGID_00000076585197581672840370000016982644323197219511_" gradientUnits="userSpaceOnUse" x1="58.3429" y1="50.3565" x2="60.8134" y2="30.0035">
	<stop  offset="0" style="stop-color:#F15895"/>
	<stop  offset="1" style="stop-color:#9645A1"/>
</linearGradient>
<polygon style="fill:url(#SVGID_00000076585197581672840370000016982644323197219511_);" points="69.4,48.9 63.2,51.6 48.2,45 
	63.2,38.4 68.7,40.8 "/>
<linearGradient id="SVGID_00000183959431683792481520000006126656046581449356_" gradientUnits="userSpaceOnUse" x1="61.5299" y1="54.8342" x2="80.2358" y2="62.3636">
	<stop  offset="0" style="stop-color:#F15895"/>
	<stop  offset="1" style="stop-color:#9645A1"/>
</linearGradient>
<polygon style="fill-rule:evenodd;clip-rule:evenodd;fill:url(#SVGID_00000183959431683792481520000006126656046581449356_);" points="
	79.4,52.8 79.4,58.5 64.2,65.1 64.2,53.3 71,50.3 "/>
<linearGradient id="SVGID_00000088092003135361980000000013375650859359676296_" gradientUnits="userSpaceOnUse" x1="59.4016" y1="51.0565" x2="46.1075" y2="64.2329">
	<stop  offset="0" style="stop-color:#F15895"/>
	<stop  offset="1" style="stop-color:#9645A1"/>
</linearGradient>
<polygon style="fill-rule:evenodd;clip-rule:evenodd;fill:url(#SVGID_00000088092003135361980000000013375650859359676296_);" points="
	62.2,53.3 62.2,65.1 46.9,58.5 46.9,46.6 "/>
<g class="st7">
	<circle class="st8" cx="77" cy="45.1" r="8.6"/>
</g>
<g>
	<g>
		
			<linearGradient id="SVGID_00000025432599576180251920000010282447361833941427_" gradientUnits="userSpaceOnUse" x1="70.0617" y1="51.2305" x2="87.7088" y2="32.9952">
			<stop  offset="0" style="stop-color:#F15895"/>
			<stop  offset="1" style="stop-color:#9645A1"/>
		</linearGradient>
		<path style="fill:url(#SVGID_00000025432599576180251920000010282447361833941427_);" d="M77,53.7c-5.3,0-9.6-4.3-9.6-9.6
			s4.3-9.6,9.6-9.6s9.6,4.3,9.6,9.6S82.2,53.7,77,53.7z M77,36.5c-4.2,0-7.6,3.4-7.6,7.6s3.4,7.6,7.6,7.6s7.6-3.4,7.6-7.6
			C84.5,39.9,81.1,36.5,77,36.5z"/>
	</g>
</g>
<g>
	
		<linearGradient id="SVGID_00000031201295412782623450000012921629467045318063_" gradientUnits="userSpaceOnUse" x1="82.3408" y1="39.7943" x2="69.6349" y2="47.912">
		<stop  offset="0" style="stop-color:#F15895"/>
		<stop  offset="1" style="stop-color:#9645A1"/>
	</linearGradient>
	<path style="fill:url(#SVGID_00000031201295412782623450000012921629467045318063_);" d="M75.3,48l-3.7-3.7c-0.4-0.4-0.4-1,0-1.4
		s1-0.4,1.4,0l2.3,2.3l4.4-4.4c0.4-0.4,1-0.4,1.4,0s0.4,1,0,1.4L75.3,48z"/>
</g>
<linearGradient id="SVGID_00000157289076941280495810000009628253421408094138_" gradientUnits="userSpaceOnUse" x1="65.4163" y1="59.226" x2="75.1222" y2="22.6966" gradientTransform="matrix(1 0 0 -1 0 130)">
	<stop  offset="0" style="stop-color:#EA5796;stop-opacity:0.2"/>
	<stop  offset="1" style="stop-color:#E55597;stop-opacity:0"/>
</linearGradient>
<path style="fill:url(#SVGID_00000157289076941280495810000009628253421408094138_);" d="M107.4,75.9c-2.1,7.6-6.1,14.4-11.6,19.8
	c-6.1,6.1-13.8,10.4-22.6,12.2c-0.3,0-0.5,0.1-0.8,0.2c-2.7,0.5-5.6,0.8-8.5,0.8c-2.4,0-4.8-0.2-7.1-0.6l-30-30
	c1.1,1,2.5,1.6,4.1,1.6h66.2c3.2,0,5.9-2.7,5.9-5.9V74c0-1.6-0.6-3-1.6-4.1L107.4,75.9z"/>
<linearGradient id="SVGID_00000059310431898667807340000007354826191583179650_" gradientUnits="userSpaceOnUse" x1="69.1824" y1="74.3874" x2="17.4765" y2="73.6815">
	<stop  offset="0" style="stop-color:#F15895"/>
	<stop  offset="1" style="stop-color:#9645A1"/>
</linearGradient>
<path style="fill-rule:evenodd;clip-rule:evenodd;fill:url(#SVGID_00000059310431898667807340000007354826191583179650_);" d="
	M62.4,78.6H30.9c-2.4,0-4.4-2-4.4-4.4V74c0-2.4,2-4.4,4.4-4.4h31.5c2.4,0,4.4,2,4.4,4.4v0.2C66.8,76.6,64.8,78.6,62.4,78.6z"/>
<linearGradient id="SVGID_00000044884580900392181090000002992536861905388479_" gradientUnits="userSpaceOnUse" x1="25.02" y1="55.92" x2="102.98" y2="55.92" gradientTransform="matrix(-1 0 0 -1 128 130)">
	<stop  offset="0" style="stop-color:#F15895"/>
	<stop  offset="1" style="stop-color:#9645A1"/>
</linearGradient>
<path style="fill:url(#SVGID_00000044884580900392181090000002992536861905388479_);" d="M26.7,69.9l0.2-0.2
	c1.1-1.1,2.5-1.7,4.1-1.7h66.2c3.2,0,5.9,2.6,5.9,5.9v0.2c0,1.6-0.7,3.1-1.7,4.1c0,0-0.1,0.1-0.1,0.1c-1.1,1-2.5,1.6-4.1,1.6H30.9
	c-3.2,0-5.9-2.7-5.9-5.9V74C25,72.4,25.6,71,26.7,69.9z M28,74.2c0,1.6,1.3,2.9,2.9,2.9h66.2c1.6,0,2.9-1.3,2.9-2.9V74
	c0-1.6-1.3-2.9-2.9-2.9H30.9c-1.6,0-2.9,1.3-2.9,2.9V74.2z"/>
<g>
	<g>
		<path class="st14" d="M63.1,49.8C63.2,49.9,63.2,49.9,63.1,49.8C63.2,49.9,63.2,49.9,63.1,49.8L63.1,49.8L63.1,49.8z"/>
	</g>
</g>
</svg>
